<svg xmlns="http://www.w3.org/2000/svg" xmlns:xlink="http://www.w3.org/1999/xlink" width="2000" zoomAndPan="magnify" viewBox="0 0 1500 1499.999933" height="2000" preserveAspectRatio="xMidYMid meet" version="1.0"><defs><g/><clipPath id="57834144db"><rect x="0" width="676" y="0" height="181"/></clipPath><clipPath id="fa6ea4c3a6"><rect x="0" width="859" y="0" height="55"/></clipPath><clipPath id="736b107f84"><path d="M 525 414.414062 L 975 414.414062 L 975 864.414062 L 525 864.414062 Z M 525 414.414062 " clip-rule="nonzero"/></clipPath><clipPath id="160175f9d1"><path d="M 750 414.414062 C 625.734375 414.414062 525 515.148438 525 639.414062 C 525 763.675781 625.734375 864.414062 750 864.414062 C 874.265625 864.414062 975 763.675781 975 639.414062 C 975 515.148438 874.265625 414.414062 750 414.414062 Z M 750 414.414062 " clip-rule="nonzero"/></clipPath><clipPath id="daf606cc33"><path d="M 729.09375 396.769531 L 1167.925781 396.769531 L 1167.925781 708.46875 L 729.09375 708.46875 Z M 729.09375 396.769531 " clip-rule="nonzero"/></clipPath><clipPath id="983f6aa553"><path d="M 0.09375 0.769531 L 438.925781 0.769531 L 438.925781 312.46875 L 0.09375 312.46875 Z M 0.09375 0.769531 " clip-rule="nonzero"/></clipPath><clipPath id="f8d534ac16"><rect x="0" width="439" y="0" height="313"/></clipPath><clipPath id="ba921aacf2"><path d="M 712.808594 343.042969 L 894.308594 343.042969 L 894.308594 524.542969 L 712.808594 524.542969 Z M 712.808594 343.042969 " clip-rule="nonzero"/></clipPath><clipPath id="5be47ebec5"><path d="M 803.625 343.042969 C 753.46875 343.042969 712.808594 383.703125 712.808594 433.855469 C 712.808594 484.011719 753.46875 524.671875 803.625 524.671875 C 853.78125 524.671875 894.4375 484.011719 894.4375 433.855469 C 894.4375 383.703125 853.78125 343.042969 803.625 343.042969 Z M 803.625 343.042969 " clip-rule="nonzero"/></clipPath><clipPath id="ce5481ef4e"><path d="M 907.417969 639.414062 L 989.589844 639.414062 L 989.589844 721.585938 L 907.417969 721.585938 Z M 907.417969 639.414062 " clip-rule="nonzero"/></clipPath><clipPath id="8ef895a941"><path d="M 948.503906 639.414062 C 925.816406 639.414062 907.417969 657.808594 907.417969 680.5 C 907.417969 703.1875 925.816406 721.585938 948.503906 721.585938 C 971.195312 721.585938 989.589844 703.1875 989.589844 680.5 C 989.589844 657.808594 971.195312 639.414062 948.503906 639.414062 Z M 948.503906 639.414062 " clip-rule="nonzero"/></clipPath><clipPath id="b9ee44ce7e"><path d="M 935.757812 524.679688 L 1042.257812 524.679688 L 1042.257812 629.679688 L 935.757812 629.679688 Z M 935.757812 524.679688 " clip-rule="nonzero"/></clipPath><clipPath id="9940b92ae5"><path d="M 989 524.679688 C 959.597656 524.679688 935.757812 548.246094 935.757812 577.320312 C 935.757812 606.390625 959.597656 629.960938 989 629.960938 C 1018.402344 629.960938 1042.242188 606.390625 1042.242188 577.320312 C 1042.242188 548.246094 1018.402344 524.679688 989 524.679688 Z M 989 524.679688 " clip-rule="nonzero"/></clipPath></defs><rect x="-150" width="1800" fill="#ffffff" y="-149.999993" height="1799.99992" fill-opacity="1"/><rect x="-150" width="1800" fill="#000000" y="-149.999993" height="1799.99992" fill-opacity="1"/><g transform="matrix(1, 0, 0, 1, 412, 875)"><g clip-path="url(#57834144db)"><g fill="#ffffff" fill-opacity="1"><g transform="translate(0.612057, 141.973877)"><g><path d="M 58.3125 1.1875 C 48.050781 1.1875 39.21875 -0.632812 31.8125 -4.28125 C 24.414062 -7.9375 18.742188 -13.046875 14.796875 -19.609375 C 10.847656 -26.171875 8.875 -33.789062 8.875 -42.46875 C 8.875 -54.007812 11.488281 -64.515625 16.71875 -73.984375 C 21.945312 -83.460938 29.367188 -90.960938 38.984375 -96.484375 C 48.609375 -102.003906 59.734375 -104.765625 72.359375 -104.765625 C 80.941406 -104.765625 88.535156 -103.359375 95.140625 -100.546875 C 101.753906 -97.742188 106.835938 -93.773438 110.390625 -88.640625 L 99.734375 -79.46875 C 93.523438 -87.5625 84.054688 -91.609375 71.328125 -91.609375 C 61.753906 -91.609375 53.367188 -89.4375 46.171875 -85.09375 C 38.972656 -80.75 33.421875 -74.898438 29.515625 -67.546875 C 25.617188 -60.203125 23.671875 -52.140625 23.671875 -43.359375 C 23.671875 -33.785156 26.753906 -26.160156 32.921875 -20.484375 C 39.085938 -14.816406 47.894531 -11.984375 59.34375 -11.984375 C 72.070312 -11.984375 82.53125 -16.078125 90.71875 -24.265625 L 99.296875 -14.5 C 94.554688 -9.375 88.660156 -5.476562 81.609375 -2.8125 C 74.554688 -0.144531 66.789062 1.1875 58.3125 1.1875 Z M 58.3125 1.1875 "/></g></g></g><g fill="#ffffff" fill-opacity="1"><g transform="translate(104.348895, 141.973877)"><g><path d="M 42.46875 0.890625 C 35.070312 0.890625 28.609375 -0.515625 23.078125 -3.328125 C 17.554688 -6.140625 13.265625 -10.109375 10.203125 -15.234375 C 7.148438 -20.367188 5.625 -26.289062 5.625 -33 C 5.625 -41.78125 7.597656 -49.671875 11.546875 -56.671875 C 15.492188 -63.679688 20.96875 -69.179688 27.96875 -73.171875 C 34.96875 -77.171875 42.859375 -79.171875 51.640625 -79.171875 C 59.046875 -79.171875 65.507812 -77.789062 71.03125 -75.03125 C 76.550781 -72.269531 80.816406 -68.347656 83.828125 -63.265625 C 86.835938 -58.179688 88.34375 -52.238281 88.34375 -45.4375 C 88.34375 -36.65625 86.367188 -28.734375 82.421875 -21.671875 C 78.484375 -14.617188 73.035156 -9.09375 66.078125 -5.09375 C 59.117188 -1.101562 51.25 0.890625 42.46875 0.890625 Z M 43.359375 -11.546875 C 49.179688 -11.546875 54.4375 -12.953125 59.125 -15.765625 C 63.8125 -18.578125 67.457031 -22.5 70.0625 -27.53125 C 72.675781 -32.5625 73.984375 -38.28125 73.984375 -44.6875 C 73.984375 -51.695312 71.960938 -57.125 67.921875 -60.96875 C 63.878906 -64.8125 58.109375 -66.734375 50.609375 -66.734375 C 44.785156 -66.734375 39.554688 -65.328125 34.921875 -62.515625 C 30.285156 -59.710938 26.632812 -55.796875 23.96875 -50.765625 C 21.3125 -45.734375 19.984375 -40.007812 19.984375 -33.59375 C 19.984375 -26.6875 22.03125 -21.285156 26.125 -17.390625 C 30.21875 -13.492188 35.960938 -11.546875 43.359375 -11.546875 Z M 43.359375 -11.546875 "/></g></g></g><g fill="#ffffff" fill-opacity="1"><g transform="translate(198.318889, 141.973877)"><g><path d="M 32.703125 -66.734375 C 36.160156 -71.078125 40.40625 -74.234375 45.4375 -76.203125 C 50.46875 -78.179688 56.582031 -79.171875 63.78125 -79.171875 L 61.125 -65.40625 C 60.226562 -65.507812 58.992188 -65.5625 57.421875 -65.5625 C 41.140625 -65.5625 31.273438 -56.78125 27.828125 -39.21875 L 19.984375 0 L 5.765625 0 L 21.3125 -78.4375 L 34.921875 -78.4375 Z M 32.703125 -66.734375 "/></g></g></g><g fill="#ffffff" fill-opacity="1"><g transform="translate(257.216543, 141.973877)"><g><path d="M 19.53125 -34.78125 L 19.53125 -33.890625 C 19.53125 -26.585938 21.601562 -21.035156 25.75 -17.234375 C 29.894531 -13.441406 36.109375 -11.546875 44.390625 -11.546875 C 49.222656 -11.546875 53.757812 -12.359375 58 -13.984375 C 62.25 -15.609375 65.804688 -17.800781 68.671875 -20.5625 L 74.734375 -10.359375 C 70.878906 -6.804688 66.191406 -4.039062 60.671875 -2.0625 C 55.148438 -0.09375 49.332031 0.890625 43.21875 0.890625 C 35.519531 0.890625 28.859375 -0.488281 23.234375 -3.25 C 17.609375 -6.019531 13.265625 -9.96875 10.203125 -15.09375 C 7.148438 -20.226562 5.625 -26.25 5.625 -33.15625 C 5.625 -41.925781 7.519531 -49.8125 11.3125 -56.8125 C 15.113281 -63.820312 20.394531 -69.300781 27.15625 -73.25 C 33.914062 -77.195312 41.488281 -79.171875 49.875 -79.171875 C 60.53125 -79.171875 69.035156 -76.132812 75.390625 -70.0625 C 81.753906 -64 84.9375 -55.738281 84.9375 -45.28125 C 84.9375 -42.125 84.59375 -38.625 83.90625 -34.78125 Z M 49.28125 -67.328125 C 42.269531 -67.328125 36.25 -65.351562 31.21875 -61.40625 C 26.1875 -57.46875 22.785156 -52.046875 21.015625 -45.140625 L 71.625 -45.140625 C 72.019531 -52.140625 70.171875 -57.585938 66.078125 -61.484375 C 61.984375 -65.378906 56.382812 -67.328125 49.28125 -67.328125 Z M 49.28125 -67.328125 "/></g></g></g><g fill="#ffffff" fill-opacity="1"><g transform="translate(347.674528, 141.973877)"><g><path d="M 62.453125 1.78125 C 51.691406 1.78125 41.992188 -0.535156 33.359375 -5.171875 C 24.734375 -9.816406 17.976562 -16.207031 13.09375 -24.34375 C 8.207031 -32.476562 5.765625 -41.628906 5.765625 -51.796875 C 5.765625 -61.953125 8.207031 -71.097656 13.09375 -79.234375 C 17.976562 -87.378906 24.734375 -93.769531 33.359375 -98.40625 C 41.992188 -103.039062 51.691406 -105.359375 62.453125 -105.359375 C 73.203125 -105.359375 82.867188 -103.039062 91.453125 -98.40625 C 100.035156 -93.769531 106.789062 -87.378906 111.71875 -79.234375 C 116.65625 -71.097656 119.125 -61.953125 119.125 -51.796875 C 119.125 -41.628906 116.65625 -32.476562 111.71875 -24.34375 C 106.789062 -16.207031 100.035156 -9.816406 91.453125 -5.171875 C 82.867188 -0.535156 73.203125 1.78125 62.453125 1.78125 Z M 62.453125 -18.640625 C 68.566406 -18.640625 74.085938 -20.046875 79.015625 -22.859375 C 83.953125 -25.671875 87.828125 -29.59375 90.640625 -34.625 C 93.453125 -39.65625 94.859375 -45.378906 94.859375 -51.796875 C 94.859375 -58.203125 93.453125 -63.921875 90.640625 -68.953125 C 87.828125 -73.992188 83.953125 -77.914062 79.015625 -80.71875 C 74.085938 -83.53125 68.566406 -84.9375 62.453125 -84.9375 C 56.335938 -84.9375 50.8125 -83.53125 45.875 -80.71875 C 40.9375 -77.914062 37.0625 -73.992188 34.25 -68.953125 C 31.445312 -63.921875 30.046875 -58.203125 30.046875 -51.796875 C 30.046875 -45.378906 31.445312 -39.65625 34.25 -34.625 C 37.0625 -29.59375 40.9375 -25.671875 45.875 -22.859375 C 50.8125 -20.046875 56.335938 -18.640625 62.453125 -18.640625 Z M 62.453125 -18.640625 "/></g></g></g><g fill="#ffffff" fill-opacity="1"><g transform="translate(472.573229, 141.973877)"><g><path d="M 57.125 -103.59375 C 66.300781 -103.59375 74.265625 -102.0625 81.015625 -99 C 87.773438 -95.9375 92.976562 -91.59375 96.625 -85.96875 C 100.28125 -80.351562 102.109375 -73.695312 102.109375 -66 C 102.109375 -58.40625 100.28125 -51.769531 96.625 -46.09375 C 92.976562 -40.425781 87.773438 -36.085938 81.015625 -33.078125 C 74.265625 -30.066406 66.300781 -28.5625 57.125 -28.5625 L 36.25 -28.5625 L 36.25 0 L 12.28125 0 L 12.28125 -103.59375 Z M 55.796875 -48.09375 C 62.992188 -48.09375 68.46875 -49.644531 72.21875 -52.75 C 75.96875 -55.863281 77.84375 -60.28125 77.84375 -66 C 77.84375 -71.820312 75.96875 -76.285156 72.21875 -79.390625 C 68.46875 -82.503906 62.992188 -84.0625 55.796875 -84.0625 L 36.25 -84.0625 L 36.25 -48.09375 Z M 55.796875 -48.09375 "/></g></g></g><g fill="#ffffff" fill-opacity="1"><g transform="translate(580.897681, 141.973877)"><g><path d="M 46.3125 1.78125 C 38.125 1.78125 30.207031 0.667969 22.5625 -1.546875 C 14.914062 -3.773438 8.773438 -6.660156 4.140625 -10.203125 L 12.28125 -28.265625 C 16.71875 -25.003906 21.992188 -22.390625 28.109375 -20.421875 C 34.234375 -18.453125 40.351562 -17.46875 46.46875 -17.46875 C 53.269531 -17.46875 58.296875 -18.476562 61.546875 -20.5 C 64.804688 -22.519531 66.4375 -25.207031 66.4375 -28.5625 C 66.4375 -31.03125 65.472656 -33.078125 63.546875 -34.703125 C 61.628906 -36.328125 59.164062 -37.632812 56.15625 -38.625 C 53.144531 -39.613281 49.078125 -40.695312 43.953125 -41.875 C 36.054688 -43.75 29.59375 -45.625 24.5625 -47.5 C 19.53125 -49.375 15.210938 -52.382812 11.609375 -56.53125 C 8.015625 -60.675781 6.21875 -66.203125 6.21875 -73.109375 C 6.21875 -79.117188 7.84375 -84.566406 11.09375 -89.453125 C 14.351562 -94.335938 19.265625 -98.207031 25.828125 -101.0625 C 32.390625 -103.925781 40.40625 -105.359375 49.875 -105.359375 C 56.476562 -105.359375 62.9375 -104.566406 69.25 -102.984375 C 75.570312 -101.410156 81.097656 -99.144531 85.828125 -96.1875 L 78.4375 -77.984375 C 68.863281 -83.410156 59.289062 -86.125 49.71875 -86.125 C 43.007812 -86.125 38.050781 -85.035156 34.84375 -82.859375 C 31.644531 -80.691406 30.046875 -77.832031 30.046875 -74.28125 C 30.046875 -70.726562 31.894531 -68.085938 35.59375 -66.359375 C 39.289062 -64.640625 44.9375 -62.941406 52.53125 -61.265625 C 60.425781 -59.390625 66.890625 -57.515625 71.921875 -55.640625 C 76.953125 -53.765625 81.265625 -50.804688 84.859375 -46.765625 C 88.460938 -42.722656 90.265625 -37.25 90.265625 -30.34375 C 90.265625 -24.414062 88.613281 -19.007812 85.3125 -14.125 C 82.007812 -9.25 77.050781 -5.378906 70.4375 -2.515625 C 63.832031 0.347656 55.789062 1.78125 46.3125 1.78125 Z M 46.3125 1.78125 "/></g></g></g></g></g><g transform="matrix(1, 0, 0, 1, 320, 1048)"><g clip-path="url(#fa6ea4c3a6)"><g fill="#ffffff" fill-opacity="1"><g transform="translate(3.037457, 42.16766)"><g><path d="M 16.53125 -30.796875 C 20.46875 -30.796875 23.550781 -29.851562 25.78125 -27.96875 C 28.007812 -26.09375 29.125 -23.515625 29.125 -20.234375 C 29.125 -16.953125 28.007812 -14.378906 25.78125 -12.515625 C 23.550781 -10.648438 20.46875 -9.71875 16.53125 -9.71875 L 8.265625 -9.71875 L 8.265625 0 L 5.015625 0 L 5.015625 -30.796875 Z M 16.453125 -12.578125 C 19.503906 -12.578125 21.832031 -13.242188 23.4375 -14.578125 C 25.050781 -15.910156 25.859375 -17.796875 25.859375 -20.234375 C 25.859375 -22.722656 25.050781 -24.632812 23.4375 -25.96875 C 21.832031 -27.300781 19.503906 -27.96875 16.453125 -27.96875 L 8.265625 -27.96875 L 8.265625 -12.578125 Z M 16.453125 -12.578125 "/></g></g></g><g fill="#ffffff" fill-opacity="1"><g transform="translate(33.595605, 42.16766)"><g><path d="M 7.34375 -18.609375 C 8.070312 -20.160156 9.160156 -21.332031 10.609375 -22.125 C 12.066406 -22.914062 13.867188 -23.3125 16.015625 -23.3125 L 16.015625 -20.28125 L 15.265625 -20.328125 C 12.828125 -20.328125 10.921875 -19.578125 9.546875 -18.078125 C 8.171875 -16.578125 7.484375 -14.476562 7.484375 -11.78125 L 7.484375 0 L 4.359375 0 L 4.359375 -23.140625 L 7.34375 -23.140625 Z M 7.34375 -18.609375 "/></g></g></g><g fill="#ffffff" fill-opacity="1"><g transform="translate(50.655403, 42.16766)"><g><path d="M 13.8125 0.21875 C 11.582031 0.21875 9.570312 -0.285156 7.78125 -1.296875 C 6 -2.304688 4.59375 -3.707031 3.5625 -5.5 C 2.53125 -7.289062 2.015625 -9.3125 2.015625 -11.5625 C 2.015625 -13.820312 2.53125 -15.847656 3.5625 -17.640625 C 4.59375 -19.429688 6 -20.820312 7.78125 -21.8125 C 9.570312 -22.8125 11.582031 -23.3125 13.8125 -23.3125 C 16.039062 -23.3125 18.046875 -22.8125 19.828125 -21.8125 C 21.617188 -20.820312 23.019531 -19.429688 24.03125 -17.640625 C 25.050781 -15.847656 25.5625 -13.820312 25.5625 -11.5625 C 25.5625 -9.3125 25.050781 -7.289062 24.03125 -5.5 C 23.019531 -3.707031 21.617188 -2.304688 19.828125 -1.296875 C 18.046875 -0.285156 16.039062 0.21875 13.8125 0.21875 Z M 13.8125 -2.546875 C 15.457031 -2.546875 16.929688 -2.921875 18.234375 -3.671875 C 19.535156 -4.421875 20.550781 -5.484375 21.28125 -6.859375 C 22.019531 -8.234375 22.390625 -9.800781 22.390625 -11.5625 C 22.390625 -13.320312 22.019531 -14.890625 21.28125 -16.265625 C 20.550781 -17.648438 19.535156 -18.710938 18.234375 -19.453125 C 16.929688 -20.203125 15.457031 -20.578125 13.8125 -20.578125 C 12.164062 -20.578125 10.691406 -20.203125 9.390625 -19.453125 C 8.085938 -18.710938 7.0625 -17.648438 6.3125 -16.265625 C 5.5625 -14.890625 5.1875 -13.320312 5.1875 -11.5625 C 5.1875 -9.800781 5.5625 -8.234375 6.3125 -6.859375 C 7.0625 -5.484375 8.085938 -4.421875 9.390625 -3.671875 C 10.691406 -2.921875 12.164062 -2.546875 13.8125 -2.546875 Z M 13.8125 -2.546875 "/></g></g></g><g fill="#ffffff" fill-opacity="1"><g transform="translate(78.223897, 42.16766)"><g><path d="M 25.46875 -32.640625 L 25.46875 0 L 22.46875 0 L 22.46875 -4.578125 C 21.53125 -3.023438 20.289062 -1.835938 18.75 -1.015625 C 17.21875 -0.191406 15.484375 0.21875 13.546875 0.21875 C 11.378906 0.21875 9.414062 -0.273438 7.65625 -1.265625 C 5.894531 -2.265625 4.515625 -3.660156 3.515625 -5.453125 C 2.515625 -7.242188 2.015625 -9.28125 2.015625 -11.5625 C 2.015625 -13.851562 2.515625 -15.890625 3.515625 -17.671875 C 4.515625 -19.460938 5.894531 -20.847656 7.65625 -21.828125 C 9.414062 -22.816406 11.378906 -23.3125 13.546875 -23.3125 C 15.421875 -23.3125 17.113281 -22.921875 18.625 -22.140625 C 20.132812 -21.367188 21.375 -20.234375 22.34375 -18.734375 L 22.34375 -32.640625 Z M 13.8125 -2.546875 C 15.425781 -2.546875 16.882812 -2.921875 18.1875 -3.671875 C 19.488281 -4.421875 20.515625 -5.484375 21.265625 -6.859375 C 22.015625 -8.234375 22.390625 -9.800781 22.390625 -11.5625 C 22.390625 -13.320312 22.015625 -14.890625 21.265625 -16.265625 C 20.515625 -17.648438 19.488281 -18.710938 18.1875 -19.453125 C 16.882812 -20.203125 15.425781 -20.578125 13.8125 -20.578125 C 12.164062 -20.578125 10.691406 -20.203125 9.390625 -19.453125 C 8.085938 -18.710938 7.0625 -17.648438 6.3125 -16.265625 C 5.5625 -14.890625 5.1875 -13.320312 5.1875 -11.5625 C 5.1875 -9.800781 5.5625 -8.234375 6.3125 -6.859375 C 7.0625 -5.484375 8.085938 -4.421875 9.390625 -3.671875 C 10.691406 -2.921875 12.164062 -2.546875 13.8125 -2.546875 Z M 13.8125 -2.546875 "/></g></g></g><g fill="#ffffff" fill-opacity="1"><g transform="translate(108.034838, 42.16766)"><g><path d="M 25.203125 -23.140625 L 25.203125 0 L 22.21875 0 L 22.21875 -4.21875 C 21.394531 -2.8125 20.265625 -1.71875 18.828125 -0.9375 C 17.390625 -0.164062 15.75 0.21875 13.90625 0.21875 C 10.882812 0.21875 8.5 -0.625 6.75 -2.3125 C 5.007812 -4 4.140625 -6.46875 4.140625 -9.71875 L 4.140625 -23.140625 L 7.25 -23.140625 L 7.25 -10.03125 C 7.25 -7.59375 7.847656 -5.742188 9.046875 -4.484375 C 10.253906 -3.222656 11.972656 -2.59375 14.203125 -2.59375 C 16.640625 -2.59375 18.5625 -3.332031 19.96875 -4.8125 C 21.375 -6.289062 22.078125 -8.351562 22.078125 -11 L 22.078125 -23.140625 Z M 25.203125 -23.140625 "/></g></g></g><g fill="#ffffff" fill-opacity="1"><g transform="translate(137.625915, 42.16766)"><g><path d="M 13.9375 0.21875 C 11.65625 0.21875 9.613281 -0.273438 7.8125 -1.265625 C 6.007812 -2.265625 4.59375 -3.664062 3.5625 -5.46875 C 2.53125 -7.28125 2.015625 -9.3125 2.015625 -11.5625 C 2.015625 -13.820312 2.53125 -15.847656 3.5625 -17.640625 C 4.59375 -19.429688 6.007812 -20.820312 7.8125 -21.8125 C 9.613281 -22.8125 11.65625 -23.3125 13.9375 -23.3125 C 15.9375 -23.3125 17.71875 -22.921875 19.28125 -22.140625 C 20.851562 -21.367188 22.09375 -20.234375 23 -18.734375 L 20.671875 -17.15625 C 19.910156 -18.300781 18.941406 -19.15625 17.765625 -19.71875 C 16.597656 -20.289062 15.320312 -20.578125 13.9375 -20.578125 C 12.269531 -20.578125 10.769531 -20.203125 9.4375 -19.453125 C 8.101562 -18.710938 7.0625 -17.648438 6.3125 -16.265625 C 5.5625 -14.890625 5.1875 -13.320312 5.1875 -11.5625 C 5.1875 -9.78125 5.5625 -8.207031 6.3125 -6.84375 C 7.0625 -5.476562 8.101562 -4.421875 9.4375 -3.671875 C 10.769531 -2.921875 12.269531 -2.546875 13.9375 -2.546875 C 15.320312 -2.546875 16.597656 -2.820312 17.765625 -3.375 C 18.941406 -3.9375 19.910156 -4.789062 20.671875 -5.9375 L 23 -4.359375 C 22.09375 -2.859375 20.847656 -1.71875 19.265625 -0.9375 C 17.679688 -0.164062 15.90625 0.21875 13.9375 0.21875 Z M 13.9375 0.21875 "/></g></g></g><g fill="#ffffff" fill-opacity="1"><g transform="translate(162.6443, 42.16766)"><g><path d="M 16.53125 -1.40625 C 15.945312 -0.875 15.222656 -0.46875 14.359375 -0.1875 C 13.492188 0.0820312 12.59375 0.21875 11.65625 0.21875 C 9.488281 0.21875 7.816406 -0.363281 6.640625 -1.53125 C 5.460938 -2.707031 4.875 -4.367188 4.875 -6.515625 L 4.875 -20.5 L 0.75 -20.5 L 0.75 -23.140625 L 4.875 -23.140625 L 4.875 -28.1875 L 8 -28.1875 L 8 -23.140625 L 15.046875 -23.140625 L 15.046875 -20.5 L 8 -20.5 L 8 -6.6875 C 8 -5.3125 8.34375 -4.265625 9.03125 -3.546875 C 9.726562 -2.828125 10.71875 -2.46875 12 -2.46875 C 12.644531 -2.46875 13.269531 -2.566406 13.875 -2.765625 C 14.476562 -2.972656 15 -3.269531 15.4375 -3.65625 Z M 16.53125 -1.40625 "/></g></g></g><g fill="#ffffff" fill-opacity="1"><g transform="translate(180.495663, 42.16766)"><g><path d="M 4.359375 -23.140625 L 7.484375 -23.140625 L 7.484375 0 L 4.359375 0 Z M 5.9375 -28.1875 C 5.300781 -28.1875 4.757812 -28.40625 4.3125 -28.84375 C 3.875 -29.289062 3.65625 -29.820312 3.65625 -30.4375 C 3.65625 -31.019531 3.875 -31.53125 4.3125 -31.96875 C 4.757812 -32.414062 5.300781 -32.640625 5.9375 -32.640625 C 6.582031 -32.640625 7.125 -32.425781 7.5625 -32 C 8.007812 -31.570312 8.234375 -31.066406 8.234375 -30.484375 C 8.234375 -29.835938 8.007812 -29.289062 7.5625 -28.84375 C 7.125 -28.40625 6.582031 -28.1875 5.9375 -28.1875 Z M 5.9375 -28.1875 "/></g></g></g><g fill="#ffffff" fill-opacity="1"><g transform="translate(192.323314, 42.16766)"><g><path d="M 13.8125 0.21875 C 11.582031 0.21875 9.570312 -0.285156 7.78125 -1.296875 C 6 -2.304688 4.59375 -3.707031 3.5625 -5.5 C 2.53125 -7.289062 2.015625 -9.3125 2.015625 -11.5625 C 2.015625 -13.820312 2.53125 -15.847656 3.5625 -17.640625 C 4.59375 -19.429688 6 -20.820312 7.78125 -21.8125 C 9.570312 -22.8125 11.582031 -23.3125 13.8125 -23.3125 C 16.039062 -23.3125 18.046875 -22.8125 19.828125 -21.8125 C 21.617188 -20.820312 23.019531 -19.429688 24.03125 -17.640625 C 25.050781 -15.847656 25.5625 -13.820312 25.5625 -11.5625 C 25.5625 -9.3125 25.050781 -7.289062 24.03125 -5.5 C 23.019531 -3.707031 21.617188 -2.304688 19.828125 -1.296875 C 18.046875 -0.285156 16.039062 0.21875 13.8125 0.21875 Z M 13.8125 -2.546875 C 15.457031 -2.546875 16.929688 -2.921875 18.234375 -3.671875 C 19.535156 -4.421875 20.550781 -5.484375 21.28125 -6.859375 C 22.019531 -8.234375 22.390625 -9.800781 22.390625 -11.5625 C 22.390625 -13.320312 22.019531 -14.890625 21.28125 -16.265625 C 20.550781 -17.648438 19.535156 -18.710938 18.234375 -19.453125 C 16.929688 -20.203125 15.457031 -20.578125 13.8125 -20.578125 C 12.164062 -20.578125 10.691406 -20.203125 9.390625 -19.453125 C 8.085938 -18.710938 7.0625 -17.648438 6.3125 -16.265625 C 5.5625 -14.890625 5.1875 -13.320312 5.1875 -11.5625 C 5.1875 -9.800781 5.5625 -8.234375 6.3125 -6.859375 C 7.0625 -5.484375 8.085938 -4.421875 9.390625 -3.671875 C 10.691406 -2.921875 12.164062 -2.546875 13.8125 -2.546875 Z M 13.8125 -2.546875 "/></g></g></g><g fill="#ffffff" fill-opacity="1"><g transform="translate(219.891808, 42.16766)"><g><path d="M 16.140625 -23.3125 C 19.046875 -23.3125 21.351562 -22.46875 23.0625 -20.78125 C 24.78125 -19.09375 25.640625 -16.640625 25.640625 -13.421875 L 25.640625 0 L 22.515625 0 L 22.515625 -13.109375 C 22.515625 -15.515625 21.910156 -17.347656 20.703125 -18.609375 C 19.503906 -19.867188 17.796875 -20.5 15.578125 -20.5 C 13.078125 -20.5 11.101562 -19.753906 9.65625 -18.265625 C 8.207031 -16.785156 7.484375 -14.742188 7.484375 -12.140625 L 7.484375 0 L 4.359375 0 L 4.359375 -23.140625 L 7.34375 -23.140625 L 7.34375 -18.875 C 8.195312 -20.28125 9.378906 -21.367188 10.890625 -22.140625 C 12.398438 -22.921875 14.148438 -23.3125 16.140625 -23.3125 Z M 16.140625 -23.3125 "/></g></g></g><g fill="#ffffff" fill-opacity="1"><g transform="translate(249.658758, 42.16766)"><g><path d="M 4.703125 -4.578125 C 5.378906 -4.578125 5.9375 -4.347656 6.375 -3.890625 C 6.8125 -3.429688 7.03125 -2.867188 7.03125 -2.203125 C 7.03125 -1.847656 6.976562 -1.460938 6.875 -1.046875 C 6.78125 -0.640625 6.628906 -0.167969 6.421875 0.359375 L 4.578125 6.421875 L 2.46875 6.421875 L 3.953125 0.046875 C 3.484375 -0.0976562 3.101562 -0.367188 2.8125 -0.765625 C 2.519531 -1.160156 2.375 -1.640625 2.375 -2.203125 C 2.375 -2.867188 2.59375 -3.429688 3.03125 -3.890625 C 3.46875 -4.347656 4.023438 -4.578125 4.703125 -4.578125 Z M 4.703125 -4.578125 "/></g></g></g><g fill="#ffffff" fill-opacity="1"><g transform="translate(258.980153, 42.16766)"><g/></g></g><g fill="#ffffff" fill-opacity="1"><g transform="translate(270.500004, 42.16766)"><g><path d="M 36.984375 -30.796875 L 36.984375 0 L 33.875 0 L 33.875 -24.625 L 21.765625 -3.921875 L 20.234375 -3.921875 L 8.140625 -24.5 L 8.140625 0 L 5.015625 0 L 5.015625 -30.796875 L 7.703125 -30.796875 L 21.0625 -7.96875 L 34.3125 -30.796875 Z M 36.984375 -30.796875 "/></g></g></g><g fill="#ffffff" fill-opacity="1"><g transform="translate(312.490296, 42.16766)"><g><path d="M 26.78125 -2.8125 L 26.78125 0 L 5.015625 0 L 5.015625 -30.796875 L 26.125 -30.796875 L 26.125 -27.96875 L 8.265625 -27.96875 L 8.265625 -17.015625 L 24.1875 -17.015625 L 24.1875 -14.25 L 8.265625 -14.25 L 8.265625 -2.8125 Z M 26.78125 -2.8125 "/></g></g></g><g fill="#ffffff" fill-opacity="1"><g transform="translate(341.9055, 42.16766)"><g><path d="M 13.5 0.265625 C 11.21875 0.265625 9.023438 -0.0976562 6.921875 -0.828125 C 4.828125 -1.566406 3.207031 -2.535156 2.0625 -3.734375 L 3.34375 -6.25 C 4.457031 -5.132812 5.9375 -4.226562 7.78125 -3.53125 C 9.632812 -2.84375 11.539062 -2.5 13.5 -2.5 C 16.257812 -2.5 18.328125 -3.003906 19.703125 -4.015625 C 21.078125 -5.035156 21.765625 -6.351562 21.765625 -7.96875 C 21.765625 -9.195312 21.390625 -10.175781 20.640625 -10.90625 C 19.898438 -11.632812 18.988281 -12.195312 17.90625 -12.59375 C 16.820312 -13 15.3125 -13.4375 13.375 -13.90625 C 11.050781 -14.488281 9.203125 -15.050781 7.828125 -15.59375 C 6.453125 -16.132812 5.269531 -16.960938 4.28125 -18.078125 C 3.300781 -19.191406 2.8125 -20.703125 2.8125 -22.609375 C 2.8125 -24.160156 3.222656 -25.570312 4.046875 -26.84375 C 4.867188 -28.125 6.128906 -29.144531 7.828125 -29.90625 C 9.523438 -30.664062 11.632812 -31.046875 14.15625 -31.046875 C 15.914062 -31.046875 17.640625 -30.800781 19.328125 -30.3125 C 21.015625 -29.832031 22.472656 -29.171875 23.703125 -28.328125 L 22.609375 -25.734375 C 21.316406 -26.578125 19.9375 -27.210938 18.46875 -27.640625 C 17.007812 -28.066406 15.570312 -28.28125 14.15625 -28.28125 C 11.457031 -28.28125 9.425781 -27.757812 8.0625 -26.71875 C 6.707031 -25.675781 6.03125 -24.335938 6.03125 -22.703125 C 6.03125 -21.460938 6.398438 -20.46875 7.140625 -19.71875 C 7.890625 -18.976562 8.828125 -18.410156 9.953125 -18.015625 C 11.085938 -17.617188 12.609375 -17.1875 14.515625 -16.71875 C 16.773438 -16.15625 18.597656 -15.601562 19.984375 -15.0625 C 21.378906 -14.519531 22.5625 -13.695312 23.53125 -12.59375 C 24.5 -11.5 24.984375 -10.015625 24.984375 -8.140625 C 24.984375 -6.585938 24.5625 -5.171875 23.71875 -3.890625 C 22.882812 -2.617188 21.601562 -1.609375 19.875 -0.859375 C 18.144531 -0.109375 16.019531 0.265625 13.5 0.265625 Z M 13.5 0.265625 "/></g></g></g><g fill="#ffffff" fill-opacity="1"><g transform="translate(369.825969, 42.16766)"><g><path d="M 4.703125 -4.578125 C 5.378906 -4.578125 5.9375 -4.347656 6.375 -3.890625 C 6.8125 -3.429688 7.03125 -2.867188 7.03125 -2.203125 C 7.03125 -1.847656 6.976562 -1.460938 6.875 -1.046875 C 6.78125 -0.640625 6.628906 -0.167969 6.421875 0.359375 L 4.578125 6.421875 L 2.46875 6.421875 L 3.953125 0.046875 C 3.484375 -0.0976562 3.101562 -0.367188 2.8125 -0.765625 C 2.519531 -1.160156 2.375 -1.640625 2.375 -2.203125 C 2.375 -2.867188 2.59375 -3.429688 3.03125 -3.890625 C 3.46875 -4.347656 4.023438 -4.578125 4.703125 -4.578125 Z M 4.703125 -4.578125 "/></g></g></g><g fill="#ffffff" fill-opacity="1"><g transform="translate(379.147364, 42.16766)"><g/></g></g><g fill="#ffffff" fill-opacity="1"><g transform="translate(390.667215, 42.16766)"><g><path d="M 36.015625 2.59375 C 35.078125 3.738281 33.972656 4.609375 32.703125 5.203125 C 31.429688 5.804688 30.046875 6.109375 28.546875 6.109375 C 26.722656 6.109375 25 5.660156 23.375 4.765625 C 21.75 3.878906 19.925781 2.378906 17.90625 0.265625 C 14.9375 0.171875 12.265625 -0.5625 9.890625 -1.9375 C 7.515625 -3.3125 5.648438 -5.171875 4.296875 -7.515625 C 2.953125 -9.867188 2.28125 -12.492188 2.28125 -15.390625 C 2.28125 -18.359375 2.976562 -21.03125 4.375 -23.40625 C 5.769531 -25.78125 7.707031 -27.644531 10.1875 -29 C 12.664062 -30.363281 15.425781 -31.046875 18.46875 -31.046875 C 21.519531 -31.046875 24.269531 -30.367188 26.71875 -29.015625 C 29.164062 -27.671875 31.09375 -25.804688 32.5 -23.421875 C 33.90625 -21.035156 34.609375 -18.359375 34.609375 -15.390625 C 34.609375 -12.816406 34.070312 -10.453125 33 -8.296875 C 31.9375 -6.140625 30.441406 -4.34375 28.515625 -2.90625 C 26.597656 -1.46875 24.394531 -0.515625 21.90625 -0.046875 C 24.164062 2.328125 26.394531 3.515625 28.59375 3.515625 C 30.875 3.515625 32.820312 2.578125 34.4375 0.703125 Z M 5.5 -15.390625 C 5.5 -12.984375 6.0625 -10.8125 7.1875 -8.875 C 8.320312 -6.945312 9.878906 -5.425781 11.859375 -4.3125 C 13.835938 -3.195312 16.039062 -2.640625 18.46875 -2.640625 C 20.90625 -2.640625 23.101562 -3.195312 25.0625 -4.3125 C 27.03125 -5.425781 28.570312 -6.945312 29.6875 -8.875 C 30.800781 -10.8125 31.359375 -12.984375 31.359375 -15.390625 C 31.359375 -17.796875 30.800781 -19.96875 29.6875 -21.90625 C 28.570312 -23.84375 27.03125 -25.367188 25.0625 -26.484375 C 23.101562 -27.597656 20.90625 -28.15625 18.46875 -28.15625 C 16.039062 -28.15625 13.835938 -27.597656 11.859375 -26.484375 C 9.878906 -25.367188 8.320312 -23.84375 7.1875 -21.90625 C 6.0625 -19.96875 5.5 -17.796875 5.5 -15.390625 Z M 5.5 -15.390625 "/></g></g></g><g fill="#ffffff" fill-opacity="1"><g transform="translate(427.55715, 42.16766)"><g><path d="M 25.203125 -23.140625 L 25.203125 0 L 22.21875 0 L 22.21875 -4.21875 C 21.394531 -2.8125 20.265625 -1.71875 18.828125 -0.9375 C 17.390625 -0.164062 15.75 0.21875 13.90625 0.21875 C 10.882812 0.21875 8.5 -0.625 6.75 -2.3125 C 5.007812 -4 4.140625 -6.46875 4.140625 -9.71875 L 4.140625 -23.140625 L 7.25 -23.140625 L 7.25 -10.03125 C 7.25 -7.59375 7.847656 -5.742188 9.046875 -4.484375 C 10.253906 -3.222656 11.972656 -2.59375 14.203125 -2.59375 C 16.640625 -2.59375 18.5625 -3.332031 19.96875 -4.8125 C 21.375 -6.289062 22.078125 -8.351562 22.078125 -11 L 22.078125 -23.140625 Z M 25.203125 -23.140625 "/></g></g></g><g fill="#ffffff" fill-opacity="1"><g transform="translate(457.148227, 42.16766)"><g><path d="M 12.453125 -23.3125 C 15.472656 -23.3125 17.785156 -22.554688 19.390625 -21.046875 C 21.003906 -19.535156 21.8125 -17.300781 21.8125 -14.34375 L 21.8125 0 L 18.828125 0 L 18.828125 -3.609375 C 18.117188 -2.398438 17.082031 -1.457031 15.71875 -0.78125 C 14.351562 -0.113281 12.734375 0.21875 10.859375 0.21875 C 8.285156 0.21875 6.234375 -0.394531 4.703125 -1.625 C 3.179688 -2.851562 2.421875 -4.484375 2.421875 -6.515625 C 2.421875 -8.472656 3.128906 -10.050781 4.546875 -11.25 C 5.972656 -12.457031 8.238281 -13.0625 11.34375 -13.0625 L 18.6875 -13.0625 L 18.6875 -14.46875 C 18.6875 -16.46875 18.128906 -17.984375 17.015625 -19.015625 C 15.898438 -20.054688 14.273438 -20.578125 12.140625 -20.578125 C 10.671875 -20.578125 9.257812 -20.335938 7.90625 -19.859375 C 6.5625 -19.378906 5.40625 -18.710938 4.4375 -17.859375 L 3.03125 -20.1875 C 4.207031 -21.1875 5.613281 -21.957031 7.25 -22.5 C 8.894531 -23.039062 10.628906 -23.3125 12.453125 -23.3125 Z M 11.34375 -2.25 C 13.101562 -2.25 14.613281 -2.648438 15.875 -3.453125 C 17.132812 -4.253906 18.070312 -5.421875 18.6875 -6.953125 L 18.6875 -10.734375 L 11.4375 -10.734375 C 7.476562 -10.734375 5.5 -9.351562 5.5 -6.59375 C 5.5 -5.25 6.007812 -4.1875 7.03125 -3.40625 C 8.0625 -2.632812 9.5 -2.25 11.34375 -2.25 Z M 11.34375 -2.25 "/></g></g></g><g fill="#ffffff" fill-opacity="1"><g transform="translate(483.089875, 42.16766)"><g><path d="M 4.359375 -32.640625 L 7.484375 -32.640625 L 7.484375 0 L 4.359375 0 Z M 4.359375 -32.640625 "/></g></g></g><g fill="#ffffff" fill-opacity="1"><g transform="translate(494.917526, 42.16766)"><g><path d="M 4.359375 -23.140625 L 7.484375 -23.140625 L 7.484375 0 L 4.359375 0 Z M 5.9375 -28.1875 C 5.300781 -28.1875 4.757812 -28.40625 4.3125 -28.84375 C 3.875 -29.289062 3.65625 -29.820312 3.65625 -30.4375 C 3.65625 -31.019531 3.875 -31.53125 4.3125 -31.96875 C 4.757812 -32.414062 5.300781 -32.640625 5.9375 -32.640625 C 6.582031 -32.640625 7.125 -32.425781 7.5625 -32 C 8.007812 -31.570312 8.234375 -31.066406 8.234375 -30.484375 C 8.234375 -29.835938 8.007812 -29.289062 7.5625 -28.84375 C 7.125 -28.40625 6.582031 -28.1875 5.9375 -28.1875 Z M 5.9375 -28.1875 "/></g></g></g><g fill="#ffffff" fill-opacity="1"><g transform="translate(506.745177, 42.16766)"><g><path d="M 16.53125 -1.40625 C 15.945312 -0.875 15.222656 -0.46875 14.359375 -0.1875 C 13.492188 0.0820312 12.59375 0.21875 11.65625 0.21875 C 9.488281 0.21875 7.816406 -0.363281 6.640625 -1.53125 C 5.460938 -2.707031 4.875 -4.367188 4.875 -6.515625 L 4.875 -20.5 L 0.75 -20.5 L 0.75 -23.140625 L 4.875 -23.140625 L 4.875 -28.1875 L 8 -28.1875 L 8 -23.140625 L 15.046875 -23.140625 L 15.046875 -20.5 L 8 -20.5 L 8 -6.6875 C 8 -5.3125 8.34375 -4.265625 9.03125 -3.546875 C 9.726562 -2.828125 10.71875 -2.46875 12 -2.46875 C 12.644531 -2.46875 13.269531 -2.566406 13.875 -2.765625 C 14.476562 -2.972656 15 -3.269531 15.4375 -3.65625 Z M 16.53125 -1.40625 "/></g></g></g><g fill="#ffffff" fill-opacity="1"><g transform="translate(524.156721, 42.16766)"><g><path d="M 23.796875 -23.140625 L 12.234375 2.765625 C 11.285156 4.941406 10.195312 6.484375 8.96875 7.390625 C 7.738281 8.296875 6.257812 8.75 4.53125 8.75 C 3.414062 8.75 2.375 8.570312 1.40625 8.21875 C 0.4375 7.875 -0.394531 7.347656 -1.09375 6.640625 L 0.359375 4.3125 C 1.523438 5.476562 2.929688 6.0625 4.578125 6.0625 C 5.628906 6.0625 6.53125 5.769531 7.28125 5.1875 C 8.03125 4.601562 8.726562 3.609375 9.375 2.203125 L 10.375 -0.046875 L 0.046875 -23.140625 L 3.296875 -23.140625 L 12 -3.46875 L 20.71875 -23.140625 Z M 23.796875 -23.140625 "/></g></g></g><g fill="#ffffff" fill-opacity="1"><g transform="translate(546.492519, 42.16766)"><g><path d="M 4.703125 -4.578125 C 5.378906 -4.578125 5.9375 -4.347656 6.375 -3.890625 C 6.8125 -3.429688 7.03125 -2.867188 7.03125 -2.203125 C 7.03125 -1.847656 6.976562 -1.460938 6.875 -1.046875 C 6.78125 -0.640625 6.628906 -0.167969 6.421875 0.359375 L 4.578125 6.421875 L 2.46875 6.421875 L 3.953125 0.046875 C 3.484375 -0.0976562 3.101562 -0.367188 2.8125 -0.765625 C 2.519531 -1.160156 2.375 -1.640625 2.375 -2.203125 C 2.375 -2.867188 2.59375 -3.429688 3.03125 -3.890625 C 3.46875 -4.347656 4.023438 -4.578125 4.703125 -4.578125 Z M 4.703125 -4.578125 "/></g></g></g><g fill="#ffffff" fill-opacity="1"><g transform="translate(555.813914, 42.16766)"><g/></g></g><g fill="#ffffff" fill-opacity="1"><g transform="translate(567.333765, 42.16766)"><g><path d="M 36.984375 -30.796875 L 36.984375 0 L 33.875 0 L 33.875 -24.625 L 21.765625 -3.921875 L 20.234375 -3.921875 L 8.140625 -24.5 L 8.140625 0 L 5.015625 0 L 5.015625 -30.796875 L 7.703125 -30.796875 L 21.0625 -7.96875 L 34.3125 -30.796875 Z M 36.984375 -30.796875 "/></g></g></g><g fill="#ffffff" fill-opacity="1"><g transform="translate(609.324057, 42.16766)"><g><path d="M 12.453125 -23.3125 C 15.472656 -23.3125 17.785156 -22.554688 19.390625 -21.046875 C 21.003906 -19.535156 21.8125 -17.300781 21.8125 -14.34375 L 21.8125 0 L 18.828125 0 L 18.828125 -3.609375 C 18.117188 -2.398438 17.082031 -1.457031 15.71875 -0.78125 C 14.351562 -0.113281 12.734375 0.21875 10.859375 0.21875 C 8.285156 0.21875 6.234375 -0.394531 4.703125 -1.625 C 3.179688 -2.851562 2.421875 -4.484375 2.421875 -6.515625 C 2.421875 -8.472656 3.128906 -10.050781 4.546875 -11.25 C 5.972656 -12.457031 8.238281 -13.0625 11.34375 -13.0625 L 18.6875 -13.0625 L 18.6875 -14.46875 C 18.6875 -16.46875 18.128906 -17.984375 17.015625 -19.015625 C 15.898438 -20.054688 14.273438 -20.578125 12.140625 -20.578125 C 10.671875 -20.578125 9.257812 -20.335938 7.90625 -19.859375 C 6.5625 -19.378906 5.40625 -18.710938 4.4375 -17.859375 L 3.03125 -20.1875 C 4.207031 -21.1875 5.613281 -21.957031 7.25 -22.5 C 8.894531 -23.039062 10.628906 -23.3125 12.453125 -23.3125 Z M 11.34375 -2.25 C 13.101562 -2.25 14.613281 -2.648438 15.875 -3.453125 C 17.132812 -4.253906 18.070312 -5.421875 18.6875 -6.953125 L 18.6875 -10.734375 L 11.4375 -10.734375 C 7.476562 -10.734375 5.5 -9.351562 5.5 -6.59375 C 5.5 -5.25 6.007812 -4.1875 7.03125 -3.40625 C 8.0625 -2.632812 9.5 -2.25 11.34375 -2.25 Z M 11.34375 -2.25 "/></g></g></g><g fill="#ffffff" fill-opacity="1"><g transform="translate(635.265705, 42.16766)"><g><path d="M 4.359375 -23.140625 L 7.484375 -23.140625 L 7.484375 0 L 4.359375 0 Z M 5.9375 -28.1875 C 5.300781 -28.1875 4.757812 -28.40625 4.3125 -28.84375 C 3.875 -29.289062 3.65625 -29.820312 3.65625 -30.4375 C 3.65625 -31.019531 3.875 -31.53125 4.3125 -31.96875 C 4.757812 -32.414062 5.300781 -32.640625 5.9375 -32.640625 C 6.582031 -32.640625 7.125 -32.425781 7.5625 -32 C 8.007812 -31.570312 8.234375 -31.066406 8.234375 -30.484375 C 8.234375 -29.835938 8.007812 -29.289062 7.5625 -28.84375 C 7.125 -28.40625 6.582031 -28.1875 5.9375 -28.1875 Z M 5.9375 -28.1875 "/></g></g></g><g fill="#ffffff" fill-opacity="1"><g transform="translate(647.093356, 42.16766)"><g><path d="M 16.140625 -23.3125 C 19.046875 -23.3125 21.351562 -22.46875 23.0625 -20.78125 C 24.78125 -19.09375 25.640625 -16.640625 25.640625 -13.421875 L 25.640625 0 L 22.515625 0 L 22.515625 -13.109375 C 22.515625 -15.515625 21.910156 -17.347656 20.703125 -18.609375 C 19.503906 -19.867188 17.796875 -20.5 15.578125 -20.5 C 13.078125 -20.5 11.101562 -19.753906 9.65625 -18.265625 C 8.207031 -16.785156 7.484375 -14.742188 7.484375 -12.140625 L 7.484375 0 L 4.359375 0 L 4.359375 -23.140625 L 7.34375 -23.140625 L 7.34375 -18.875 C 8.195312 -20.28125 9.378906 -21.367188 10.890625 -22.140625 C 12.398438 -22.921875 14.148438 -23.3125 16.140625 -23.3125 Z M 16.140625 -23.3125 "/></g></g></g><g fill="#ffffff" fill-opacity="1"><g transform="translate(676.860306, 42.16766)"><g><path d="M 16.53125 -1.40625 C 15.945312 -0.875 15.222656 -0.46875 14.359375 -0.1875 C 13.492188 0.0820312 12.59375 0.21875 11.65625 0.21875 C 9.488281 0.21875 7.816406 -0.363281 6.640625 -1.53125 C 5.460938 -2.707031 4.875 -4.367188 4.875 -6.515625 L 4.875 -20.5 L 0.75 -20.5 L 0.75 -23.140625 L 4.875 -23.140625 L 4.875 -28.1875 L 8 -28.1875 L 8 -23.140625 L 15.046875 -23.140625 L 15.046875 -20.5 L 8 -20.5 L 8 -6.6875 C 8 -5.3125 8.34375 -4.265625 9.03125 -3.546875 C 9.726562 -2.828125 10.71875 -2.46875 12 -2.46875 C 12.644531 -2.46875 13.269531 -2.566406 13.875 -2.765625 C 14.476562 -2.972656 15 -3.269531 15.4375 -3.65625 Z M 16.53125 -1.40625 "/></g></g></g><g fill="#ffffff" fill-opacity="1"><g transform="translate(693.876067, 42.16766)"><g><path d="M 24.5 -10.59375 L 5.140625 -10.59375 C 5.316406 -8.195312 6.238281 -6.253906 7.90625 -4.765625 C 9.582031 -3.285156 11.695312 -2.546875 14.25 -2.546875 C 15.6875 -2.546875 17.003906 -2.800781 18.203125 -3.3125 C 19.410156 -3.832031 20.453125 -4.59375 21.328125 -5.59375 L 23.09375 -3.5625 C 22.0625 -2.332031 20.773438 -1.394531 19.234375 -0.75 C 17.703125 -0.101562 16.007812 0.21875 14.15625 0.21875 C 11.78125 0.21875 9.675781 -0.285156 7.84375 -1.296875 C 6.019531 -2.304688 4.59375 -3.707031 3.5625 -5.5 C 2.53125 -7.289062 2.015625 -9.3125 2.015625 -11.5625 C 2.015625 -13.820312 2.503906 -15.847656 3.484375 -17.640625 C 4.472656 -19.429688 5.820312 -20.820312 7.53125 -21.8125 C 9.25 -22.8125 11.179688 -23.3125 13.328125 -23.3125 C 15.460938 -23.3125 17.378906 -22.8125 19.078125 -21.8125 C 20.785156 -20.820312 22.125 -19.4375 23.09375 -17.65625 C 24.0625 -15.882812 24.546875 -13.851562 24.546875 -11.5625 Z M 13.328125 -20.625 C 11.097656 -20.625 9.226562 -19.910156 7.71875 -18.484375 C 6.207031 -17.066406 5.347656 -15.21875 5.140625 -12.9375 L 21.546875 -12.9375 C 21.347656 -15.21875 20.492188 -17.066406 18.984375 -18.484375 C 17.472656 -19.910156 15.585938 -20.625 13.328125 -20.625 Z M 13.328125 -20.625 "/></g></g></g><g fill="#ffffff" fill-opacity="1"><g transform="translate(720.43327, 42.16766)"><g><path d="M 16.140625 -23.3125 C 19.046875 -23.3125 21.351562 -22.46875 23.0625 -20.78125 C 24.78125 -19.09375 25.640625 -16.640625 25.640625 -13.421875 L 25.640625 0 L 22.515625 0 L 22.515625 -13.109375 C 22.515625 -15.515625 21.910156 -17.347656 20.703125 -18.609375 C 19.503906 -19.867188 17.796875 -20.5 15.578125 -20.5 C 13.078125 -20.5 11.101562 -19.753906 9.65625 -18.265625 C 8.207031 -16.785156 7.484375 -14.742188 7.484375 -12.140625 L 7.484375 0 L 4.359375 0 L 4.359375 -23.140625 L 7.34375 -23.140625 L 7.34375 -18.875 C 8.195312 -20.28125 9.378906 -21.367188 10.890625 -22.140625 C 12.398438 -22.921875 14.148438 -23.3125 16.140625 -23.3125 Z M 16.140625 -23.3125 "/></g></g></g><g fill="#ffffff" fill-opacity="1"><g transform="translate(750.200219, 42.16766)"><g><path d="M 12.453125 -23.3125 C 15.472656 -23.3125 17.785156 -22.554688 19.390625 -21.046875 C 21.003906 -19.535156 21.8125 -17.300781 21.8125 -14.34375 L 21.8125 0 L 18.828125 0 L 18.828125 -3.609375 C 18.117188 -2.398438 17.082031 -1.457031 15.71875 -0.78125 C 14.351562 -0.113281 12.734375 0.21875 10.859375 0.21875 C 8.285156 0.21875 6.234375 -0.394531 4.703125 -1.625 C 3.179688 -2.851562 2.421875 -4.484375 2.421875 -6.515625 C 2.421875 -8.472656 3.128906 -10.050781 4.546875 -11.25 C 5.972656 -12.457031 8.238281 -13.0625 11.34375 -13.0625 L 18.6875 -13.0625 L 18.6875 -14.46875 C 18.6875 -16.46875 18.128906 -17.984375 17.015625 -19.015625 C 15.898438 -20.054688 14.273438 -20.578125 12.140625 -20.578125 C 10.671875 -20.578125 9.257812 -20.335938 7.90625 -19.859375 C 6.5625 -19.378906 5.40625 -18.710938 4.4375 -17.859375 L 3.03125 -20.1875 C 4.207031 -21.1875 5.613281 -21.957031 7.25 -22.5 C 8.894531 -23.039062 10.628906 -23.3125 12.453125 -23.3125 Z M 11.34375 -2.25 C 13.101562 -2.25 14.613281 -2.648438 15.875 -3.453125 C 17.132812 -4.253906 18.070312 -5.421875 18.6875 -6.953125 L 18.6875 -10.734375 L 11.4375 -10.734375 C 7.476562 -10.734375 5.5 -9.351562 5.5 -6.59375 C 5.5 -5.25 6.007812 -4.1875 7.03125 -3.40625 C 8.0625 -2.632812 9.5 -2.25 11.34375 -2.25 Z M 11.34375 -2.25 "/></g></g></g><g fill="#ffffff" fill-opacity="1"><g transform="translate(776.141822, 42.16766)"><g><path d="M 16.140625 -23.3125 C 19.046875 -23.3125 21.351562 -22.46875 23.0625 -20.78125 C 24.78125 -19.09375 25.640625 -16.640625 25.640625 -13.421875 L 25.640625 0 L 22.515625 0 L 22.515625 -13.109375 C 22.515625 -15.515625 21.910156 -17.347656 20.703125 -18.609375 C 19.503906 -19.867188 17.796875 -20.5 15.578125 -20.5 C 13.078125 -20.5 11.101562 -19.753906 9.65625 -18.265625 C 8.207031 -16.785156 7.484375 -14.742188 7.484375 -12.140625 L 7.484375 0 L 4.359375 0 L 4.359375 -23.140625 L 7.34375 -23.140625 L 7.34375 -18.875 C 8.195312 -20.28125 9.378906 -21.367188 10.890625 -22.140625 C 12.398438 -22.921875 14.148438 -23.3125 16.140625 -23.3125 Z M 16.140625 -23.3125 "/></g></g></g><g fill="#ffffff" fill-opacity="1"><g transform="translate(805.9968, 42.16766)"><g><path d="M 13.9375 0.21875 C 11.65625 0.21875 9.613281 -0.273438 7.8125 -1.265625 C 6.007812 -2.265625 4.59375 -3.664062 3.5625 -5.46875 C 2.53125 -7.28125 2.015625 -9.3125 2.015625 -11.5625 C 2.015625 -13.820312 2.53125 -15.847656 3.5625 -17.640625 C 4.59375 -19.429688 6.007812 -20.820312 7.8125 -21.8125 C 9.613281 -22.8125 11.65625 -23.3125 13.9375 -23.3125 C 15.9375 -23.3125 17.71875 -22.921875 19.28125 -22.140625 C 20.851562 -21.367188 22.09375 -20.234375 23 -18.734375 L 20.671875 -17.15625 C 19.910156 -18.300781 18.941406 -19.15625 17.765625 -19.71875 C 16.597656 -20.289062 15.320312 -20.578125 13.9375 -20.578125 C 12.269531 -20.578125 10.769531 -20.203125 9.4375 -19.453125 C 8.101562 -18.710938 7.0625 -17.648438 6.3125 -16.265625 C 5.5625 -14.890625 5.1875 -13.320312 5.1875 -11.5625 C 5.1875 -9.78125 5.5625 -8.207031 6.3125 -6.84375 C 7.0625 -5.476562 8.101562 -4.421875 9.4375 -3.671875 C 10.769531 -2.921875 12.269531 -2.546875 13.9375 -2.546875 C 15.320312 -2.546875 16.597656 -2.820312 17.765625 -3.375 C 18.941406 -3.9375 19.910156 -4.789062 20.671875 -5.9375 L 23 -4.359375 C 22.09375 -2.859375 20.847656 -1.71875 19.265625 -0.9375 C 17.679688 -0.164062 15.90625 0.21875 13.9375 0.21875 Z M 13.9375 0.21875 "/></g></g></g><g fill="#ffffff" fill-opacity="1"><g transform="translate(830.355501, 42.16766)"><g><path d="M 24.5 -10.59375 L 5.140625 -10.59375 C 5.316406 -8.195312 6.238281 -6.253906 7.90625 -4.765625 C 9.582031 -3.285156 11.695312 -2.546875 14.25 -2.546875 C 15.6875 -2.546875 17.003906 -2.800781 18.203125 -3.3125 C 19.410156 -3.832031 20.453125 -4.59375 21.328125 -5.59375 L 23.09375 -3.5625 C 22.0625 -2.332031 20.773438 -1.394531 19.234375 -0.75 C 17.703125 -0.101562 16.007812 0.21875 14.15625 0.21875 C 11.78125 0.21875 9.675781 -0.285156 7.84375 -1.296875 C 6.019531 -2.304688 4.59375 -3.707031 3.5625 -5.5 C 2.53125 -7.289062 2.015625 -9.3125 2.015625 -11.5625 C 2.015625 -13.820312 2.503906 -15.847656 3.484375 -17.640625 C 4.472656 -19.429688 5.820312 -20.820312 7.53125 -21.8125 C 9.25 -22.8125 11.179688 -23.3125 13.328125 -23.3125 C 15.460938 -23.3125 17.378906 -22.8125 19.078125 -21.8125 C 20.785156 -20.820312 22.125 -19.4375 23.09375 -17.65625 C 24.0625 -15.882812 24.546875 -13.851562 24.546875 -11.5625 Z M 13.328125 -20.625 C 11.097656 -20.625 9.226562 -19.910156 7.71875 -18.484375 C 6.207031 -17.066406 5.347656 -15.21875 5.140625 -12.9375 L 21.546875 -12.9375 C 21.347656 -15.21875 20.492188 -17.066406 18.984375 -18.484375 C 17.472656 -19.910156 15.585938 -20.625 13.328125 -20.625 Z M 13.328125 -20.625 "/></g></g></g></g></g><g clip-path="url(#736b107f84)"><g clip-path="url(#160175f9d1)"><path stroke-linecap="butt" transform="matrix(0.75, 0, 0, 0.75, 524.999988, 414.41224)" fill="none" stroke-linejoin="miter" d="M 300.000042 0.00242959 C 134.312527 0.00242959 0.0000158267 134.314941 0.0000158267 300.002455 C 0.0000158267 465.684761 134.312527 600.002481 300.000042 600.002481 C 465.687556 600.002481 600.000068 465.684761 600.000068 300.002455 C 600.000068 134.314941 465.687556 0.00242959 300.000042 0.00242959 Z M 300.000042 0.00242959 " stroke="#ffffff" stroke-width="92" stroke-opacity="1" stroke-miterlimit="4"/></g></g><g clip-path="url(#daf606cc33)"><g transform="matrix(1, 0, 0, 1, 729, 396)"><g clip-path="url(#f8d534ac16)"><g clip-path="url(#983f6aa553)"><path fill="#000000" d="M 0.09375 0.769531 L 438.421875 0.769531 L 438.421875 312.46875 L 0.09375 312.46875 Z M 0.09375 0.769531 " fill-opacity="1" fill-rule="nonzero"/></g></g></g></g><g clip-path="url(#ba921aacf2)"><g clip-path="url(#5be47ebec5)"><path stroke-linecap="butt" transform="matrix(0.75, 0, 0, 0.75, 712.809476, 343.042393)" fill="none" stroke-linejoin="miter" d="M 121.087384 0.000767863 C 54.212374 0.000767863 -0.00117627 54.214318 -0.00117627 121.084119 C -0.00117627 187.959129 54.212374 242.172679 121.087384 242.172679 C 187.962394 242.172679 242.170735 187.959129 242.170735 121.084119 C 242.170735 54.214318 187.962394 0.000767863 121.087384 0.000767863 Z M 121.087384 0.000767863 " stroke="#ffffff" stroke-width="88" stroke-opacity="1" stroke-miterlimit="4"/></g></g><g clip-path="url(#ce5481ef4e)"><g clip-path="url(#8ef895a941)"><path stroke-linecap="butt" transform="matrix(0.75, 0, 0, 0.75, 907.419867, 639.412245)" fill="none" stroke-linejoin="miter" d="M 54.778723 0.00242343 C 24.528721 0.00242343 -0.00253125 24.528467 -0.00253125 54.783678 C -0.00253125 85.033681 24.528721 109.564933 54.778723 109.564933 C 85.033934 109.564933 109.559978 85.033681 109.559978 54.783678 C 109.559978 24.528467 85.033934 0.00242343 54.778723 0.00242343 Z M 54.778723 0.00242343 " stroke="#ffffff" stroke-width="70" stroke-opacity="1" stroke-miterlimit="4"/></g></g><path stroke-linecap="butt" transform="matrix(0, 0.75, -0.75, 0, 961.255031, 574.831394)" fill="none" stroke-linejoin="miter" d="M 0.000849016 17.001501 L 120.516484 17.001501 " stroke="#ffffff" stroke-width="34" stroke-opacity="1" stroke-miterlimit="4"/><g clip-path="url(#b9ee44ce7e)"><g clip-path="url(#9940b92ae5)"><path stroke-linecap="butt" transform="matrix(0.75, 0, 0, 0.75, 935.756089, 524.678839)" fill="none" stroke-linejoin="miter" d="M 70.991888 0.00113159 C 31.788759 0.00113159 0.00229833 31.423009 0.00229833 70.188638 C 0.00229833 108.949058 31.788759 140.376144 70.991888 140.376144 C 110.195016 140.376144 141.981477 108.949058 141.981477 70.188638 C 141.981477 31.423009 110.195016 0.00113159 70.991888 0.00113159 Z M 70.991888 0.00113159 " stroke="#ffffff" stroke-width="70" stroke-opacity="1" stroke-miterlimit="4"/></g></g></svg>