<svg xmlns="http://www.w3.org/2000/svg" xmlns:xlink="http://www.w3.org/1999/xlink" width="2000" zoomAndPan="magnify" viewBox="0 0 1500 1499.999933" height="2000" preserveAspectRatio="xMidYMid meet" version="1.0"><defs><g/><clipPath id="2420210a27"><rect x="0" width="1042" y="0" height="181"/></clipPath><clipPath id="d3f8815d2d"><rect x="0" width="682" y="0" height="55"/></clipPath><clipPath id="dd4cf7e099"><path d="M 525 414.414062 L 975 414.414062 L 975 864.414062 L 525 864.414062 Z M 525 414.414062 " clip-rule="nonzero"/></clipPath><clipPath id="70bd860221"><path d="M 750 414.414062 C 625.734375 414.414062 525 515.148438 525 639.414062 C 525 763.675781 625.734375 864.414062 750 864.414062 C 874.265625 864.414062 975 763.675781 975 639.414062 C 975 515.148438 874.265625 414.414062 750 414.414062 Z M 750 414.414062 " clip-rule="nonzero"/></clipPath><clipPath id="7a6f7b193b"><path d="M 729.09375 396.769531 L 1167.925781 396.769531 L 1167.925781 708.46875 L 729.09375 708.46875 Z M 729.09375 396.769531 " clip-rule="nonzero"/></clipPath><clipPath id="7f2aa11910"><path d="M 0.09375 0.769531 L 438.925781 0.769531 L 438.925781 312.46875 L 0.09375 312.46875 Z M 0.09375 0.769531 " clip-rule="nonzero"/></clipPath><clipPath id="f31d63b76b"><rect x="0" width="439" y="0" height="313"/></clipPath><clipPath id="a8ab56df39"><path d="M 907.417969 639.414062 L 989.589844 639.414062 L 989.589844 721.585938 L 907.417969 721.585938 Z M 907.417969 639.414062 " clip-rule="nonzero"/></clipPath><clipPath id="4a3c8f039e"><path d="M 948.503906 639.414062 C 925.816406 639.414062 907.417969 657.808594 907.417969 680.5 C 907.417969 703.1875 925.816406 721.585938 948.503906 721.585938 C 971.195312 721.585938 989.589844 703.1875 989.589844 680.5 C 989.589844 657.808594 971.195312 639.414062 948.503906 639.414062 Z M 948.503906 639.414062 " clip-rule="nonzero"/></clipPath><clipPath id="c7b9233236"><path d="M 729.09375 498.867188 L 910.59375 498.867188 L 910.59375 680.367188 L 729.09375 680.367188 Z M 729.09375 498.867188 " clip-rule="nonzero"/></clipPath><clipPath id="6a8e8011a5"><path d="M 819.910156 498.867188 C 769.753906 498.867188 729.09375 539.523438 729.09375 589.679688 C 729.09375 639.835938 769.753906 680.496094 819.910156 680.496094 C 870.066406 680.496094 910.722656 639.835938 910.722656 589.679688 C 910.722656 539.523438 870.066406 498.867188 819.910156 498.867188 Z M 819.910156 498.867188 " clip-rule="nonzero"/></clipPath><clipPath id="aaf6e81c81"><path d="M 707.757812 393.390625 L 776.007812 393.390625 L 776.007812 461.640625 L 707.757812 461.640625 Z M 707.757812 393.390625 " clip-rule="nonzero"/></clipPath><clipPath id="82c65e1d89"><path d="M 742.0625 393.390625 C 723.117188 393.390625 707.757812 408.75 707.757812 427.699219 C 707.757812 446.644531 723.117188 462.003906 742.0625 462.003906 C 761.011719 462.003906 776.371094 446.644531 776.371094 427.699219 C 776.371094 408.75 761.011719 393.390625 742.0625 393.390625 Z M 742.0625 393.390625 " clip-rule="nonzero"/></clipPath></defs><rect x="-150" width="1800" fill="#ffffff" y="-149.999993" height="1799.99992" fill-opacity="1"/><rect x="-150" width="1800" fill="#000000" y="-149.999993" height="1799.99992" fill-opacity="1"/><g transform="matrix(1, 0, 0, 1, 230, 865)"><g clip-path="url(#2420210a27)"><g fill="#ffffff" fill-opacity="1"><g transform="translate(0.587293, 141.489991)"><g><path d="M 58.3125 1.1875 C 48.050781 1.1875 39.21875 -0.632812 31.8125 -4.28125 C 24.414062 -7.9375 18.742188 -13.046875 14.796875 -19.609375 C 10.847656 -26.171875 8.875 -33.789062 8.875 -42.46875 C 8.875 -54.007812 11.488281 -64.515625 16.71875 -73.984375 C 21.945312 -83.460938 29.367188 -90.960938 38.984375 -96.484375 C 48.609375 -102.003906 59.734375 -104.765625 72.359375 -104.765625 C 80.941406 -104.765625 88.535156 -103.359375 95.140625 -100.546875 C 101.753906 -97.742188 106.835938 -93.773438 110.390625 -88.640625 L 99.734375 -79.46875 C 93.523438 -87.5625 84.054688 -91.609375 71.328125 -91.609375 C 61.753906 -91.609375 53.367188 -89.4375 46.171875 -85.09375 C 38.972656 -80.75 33.421875 -74.898438 29.515625 -67.546875 C 25.617188 -60.203125 23.671875 -52.140625 23.671875 -43.359375 C 23.671875 -33.785156 26.753906 -26.160156 32.921875 -20.484375 C 39.085938 -14.816406 47.894531 -11.984375 59.34375 -11.984375 C 72.070312 -11.984375 82.53125 -16.078125 90.71875 -24.265625 L 99.296875 -14.5 C 94.554688 -9.375 88.660156 -5.476562 81.609375 -2.8125 C 74.554688 -0.144531 66.789062 1.1875 58.3125 1.1875 Z M 58.3125 1.1875 "/></g></g></g><g fill="#ffffff" fill-opacity="1"><g transform="translate(104.324131, 141.489991)"><g><path d="M 42.46875 0.890625 C 35.070312 0.890625 28.609375 -0.515625 23.078125 -3.328125 C 17.554688 -6.140625 13.265625 -10.109375 10.203125 -15.234375 C 7.148438 -20.367188 5.625 -26.289062 5.625 -33 C 5.625 -41.78125 7.597656 -49.671875 11.546875 -56.671875 C 15.492188 -63.679688 20.96875 -69.179688 27.96875 -73.171875 C 34.96875 -77.171875 42.859375 -79.171875 51.640625 -79.171875 C 59.046875 -79.171875 65.507812 -77.789062 71.03125 -75.03125 C 76.550781 -72.269531 80.816406 -68.347656 83.828125 -63.265625 C 86.835938 -58.179688 88.34375 -52.238281 88.34375 -45.4375 C 88.34375 -36.65625 86.367188 -28.734375 82.421875 -21.671875 C 78.484375 -14.617188 73.035156 -9.09375 66.078125 -5.09375 C 59.117188 -1.101562 51.25 0.890625 42.46875 0.890625 Z M 43.359375 -11.546875 C 49.179688 -11.546875 54.4375 -12.953125 59.125 -15.765625 C 63.8125 -18.578125 67.457031 -22.5 70.0625 -27.53125 C 72.675781 -32.5625 73.984375 -38.28125 73.984375 -44.6875 C 73.984375 -51.695312 71.960938 -57.125 67.921875 -60.96875 C 63.878906 -64.8125 58.109375 -66.734375 50.609375 -66.734375 C 44.785156 -66.734375 39.554688 -65.328125 34.921875 -62.515625 C 30.285156 -59.710938 26.632812 -55.796875 23.96875 -50.765625 C 21.3125 -45.734375 19.984375 -40.007812 19.984375 -33.59375 C 19.984375 -26.6875 22.03125 -21.285156 26.125 -17.390625 C 30.21875 -13.492188 35.960938 -11.546875 43.359375 -11.546875 Z M 43.359375 -11.546875 "/></g></g></g><g fill="#ffffff" fill-opacity="1"><g transform="translate(198.294125, 141.489991)"><g><path d="M 32.703125 -66.734375 C 36.160156 -71.078125 40.40625 -74.234375 45.4375 -76.203125 C 50.46875 -78.179688 56.582031 -79.171875 63.78125 -79.171875 L 61.125 -65.40625 C 60.226562 -65.507812 58.992188 -65.5625 57.421875 -65.5625 C 41.140625 -65.5625 31.273438 -56.78125 27.828125 -39.21875 L 19.984375 0 L 5.765625 0 L 21.3125 -78.4375 L 34.921875 -78.4375 Z M 32.703125 -66.734375 "/></g></g></g><g fill="#ffffff" fill-opacity="1"><g transform="translate(257.191779, 141.489991)"><g><path d="M 19.53125 -34.78125 L 19.53125 -33.890625 C 19.53125 -26.585938 21.601562 -21.035156 25.75 -17.234375 C 29.894531 -13.441406 36.109375 -11.546875 44.390625 -11.546875 C 49.222656 -11.546875 53.757812 -12.359375 58 -13.984375 C 62.25 -15.609375 65.804688 -17.800781 68.671875 -20.5625 L 74.734375 -10.359375 C 70.878906 -6.804688 66.191406 -4.039062 60.671875 -2.0625 C 55.148438 -0.09375 49.332031 0.890625 43.21875 0.890625 C 35.519531 0.890625 28.859375 -0.488281 23.234375 -3.25 C 17.609375 -6.019531 13.265625 -9.96875 10.203125 -15.09375 C 7.148438 -20.226562 5.625 -26.25 5.625 -33.15625 C 5.625 -41.925781 7.519531 -49.8125 11.3125 -56.8125 C 15.113281 -63.820312 20.394531 -69.300781 27.15625 -73.25 C 33.914062 -77.195312 41.488281 -79.171875 49.875 -79.171875 C 60.53125 -79.171875 69.035156 -76.132812 75.390625 -70.0625 C 81.753906 -64 84.9375 -55.738281 84.9375 -45.28125 C 84.9375 -42.125 84.59375 -38.625 83.90625 -34.78125 Z M 49.28125 -67.328125 C 42.269531 -67.328125 36.25 -65.351562 31.21875 -61.40625 C 26.1875 -57.46875 22.785156 -52.046875 21.015625 -45.140625 L 71.625 -45.140625 C 72.019531 -52.140625 70.171875 -57.585938 66.078125 -61.484375 C 61.984375 -65.378906 56.382812 -67.328125 49.28125 -67.328125 Z M 49.28125 -67.328125 "/></g></g></g><g fill="#ffffff" fill-opacity="1"><g transform="translate(347.649763, 141.489991)"><g><path d="M 88.34375 -53.859375 C 94.257812 -51.984375 98.894531 -48.851562 102.25 -44.46875 C 105.601562 -40.082031 107.28125 -34.679688 107.28125 -28.265625 C 107.28125 -19.191406 103.753906 -12.210938 96.703125 -7.328125 C 89.648438 -2.441406 79.367188 0 65.859375 0 L 12.28125 0 L 12.28125 -103.59375 L 62.890625 -103.59375 C 75.515625 -103.59375 85.207031 -101.175781 91.96875 -96.34375 C 98.726562 -91.507812 102.109375 -84.945312 102.109375 -76.65625 C 102.109375 -71.625 100.898438 -67.132812 98.484375 -63.1875 C 96.066406 -59.238281 92.6875 -56.128906 88.34375 -53.859375 Z M 36.109375 -85.53125 L 36.109375 -61.125 L 59.9375 -61.125 C 65.851562 -61.125 70.335938 -62.15625 73.390625 -64.21875 C 76.453125 -66.289062 77.984375 -69.351562 77.984375 -73.40625 C 77.984375 -77.445312 76.453125 -80.476562 73.390625 -82.5 C 70.335938 -84.519531 65.851562 -85.53125 59.9375 -85.53125 Z M 64.078125 -18.046875 C 70.390625 -18.046875 75.148438 -19.082031 78.359375 -21.15625 C 81.566406 -23.226562 83.171875 -26.4375 83.171875 -30.78125 C 83.171875 -39.363281 76.804688 -43.65625 64.078125 -43.65625 L 36.109375 -43.65625 L 36.109375 -18.046875 Z M 64.078125 -18.046875 "/></g></g></g><g fill="#ffffff" fill-opacity="1"><g transform="translate(460.85773, 141.489991)"><g><path d="M 90.859375 -79.609375 L 90.859375 0 L 68.953125 0 L 68.953125 -9.46875 C 65.898438 -6.019531 62.25 -3.378906 58 -1.546875 C 53.757812 0.273438 49.175781 1.1875 44.25 1.1875 C 33.789062 1.1875 25.5 -1.820312 19.375 -7.84375 C 13.257812 -13.863281 10.203125 -22.789062 10.203125 -34.625 L 10.203125 -79.609375 L 33.296875 -79.609375 L 33.296875 -38.03125 C 33.296875 -25.207031 38.671875 -18.796875 49.421875 -18.796875 C 54.953125 -18.796875 59.394531 -20.59375 62.75 -24.1875 C 66.101562 -27.789062 67.78125 -33.144531 67.78125 -40.25 L 67.78125 -79.609375 Z M 90.859375 -79.609375 "/></g></g></g><g fill="#ffffff" fill-opacity="1"><g transform="translate(562.522912, 141.489991)"><g><path d="M 37.4375 1.1875 C 30.832031 1.1875 24.367188 0.371094 18.046875 -1.25 C 11.734375 -2.882812 6.703125 -4.9375 2.953125 -7.40625 L 10.65625 -23.96875 C 14.207031 -21.695312 18.5 -19.847656 23.53125 -18.421875 C 28.5625 -16.992188 33.492188 -16.28125 38.328125 -16.28125 C 48.097656 -16.28125 52.984375 -18.695312 52.984375 -23.53125 C 52.984375 -25.800781 51.648438 -27.425781 48.984375 -28.40625 C 46.316406 -29.394531 42.222656 -30.234375 36.703125 -30.921875 C 30.191406 -31.910156 24.8125 -33.046875 20.5625 -34.328125 C 16.320312 -35.609375 12.648438 -37.875 9.546875 -41.125 C 6.441406 -44.382812 4.890625 -49.023438 4.890625 -55.046875 C 4.890625 -60.078125 6.34375 -64.539062 9.25 -68.4375 C 12.15625 -72.332031 16.394531 -75.363281 21.96875 -77.53125 C 27.550781 -79.707031 34.140625 -80.796875 41.734375 -80.796875 C 47.359375 -80.796875 52.957031 -80.175781 58.53125 -78.9375 C 64.101562 -77.707031 68.710938 -76.007812 72.359375 -73.84375 L 64.671875 -57.421875 C 57.660156 -61.367188 50.015625 -63.34375 41.734375 -63.34375 C 36.796875 -63.34375 33.09375 -62.648438 30.625 -61.265625 C 28.164062 -59.878906 26.9375 -58.101562 26.9375 -55.9375 C 26.9375 -53.46875 28.265625 -51.738281 30.921875 -50.75 C 33.585938 -49.769531 37.832031 -48.835938 43.65625 -47.953125 C 50.164062 -46.859375 55.492188 -45.695312 59.640625 -44.46875 C 63.785156 -43.238281 67.382812 -40.992188 70.4375 -37.734375 C 73.5 -34.484375 75.03125 -29.945312 75.03125 -24.125 C 75.03125 -19.1875 73.550781 -14.789062 70.59375 -10.9375 C 67.632812 -7.09375 63.316406 -4.109375 57.640625 -1.984375 C 51.960938 0.128906 45.226562 1.1875 37.4375 1.1875 Z M 37.4375 1.1875 "/></g></g></g><g fill="#ffffff" fill-opacity="1"><g transform="translate(641.102571, 141.489991)"><g><path d="M 10.65625 -79.609375 L 33.734375 -79.609375 L 33.734375 0 L 10.65625 0 Z M 22.203125 -90.71875 C 17.953125 -90.71875 14.492188 -91.945312 11.828125 -94.40625 C 9.171875 -96.875 7.84375 -99.9375 7.84375 -103.59375 C 7.84375 -107.238281 9.171875 -110.296875 11.828125 -112.765625 C 14.492188 -115.234375 17.953125 -116.46875 22.203125 -116.46875 C 26.441406 -116.46875 29.890625 -115.28125 32.546875 -112.90625 C 35.210938 -110.539062 36.546875 -107.582031 36.546875 -104.03125 C 36.546875 -100.1875 35.210938 -97.003906 32.546875 -94.484375 C 29.890625 -91.972656 26.441406 -90.71875 22.203125 -90.71875 Z M 22.203125 -90.71875 "/></g></g></g><g fill="#ffffff" fill-opacity="1"><g transform="translate(685.645811, 141.489991)"><g><path d="M 59.046875 -80.796875 C 68.910156 -80.796875 76.875 -77.835938 82.9375 -71.921875 C 89.007812 -66.003906 92.046875 -57.222656 92.046875 -45.578125 L 92.046875 0 L 68.953125 0 L 68.953125 -42.03125 C 68.953125 -48.34375 67.570312 -53.050781 64.8125 -56.15625 C 62.050781 -59.269531 58.054688 -60.828125 52.828125 -60.828125 C 47.003906 -60.828125 42.363281 -59.023438 38.90625 -55.421875 C 35.457031 -51.816406 33.734375 -46.460938 33.734375 -39.359375 L 33.734375 0 L 10.65625 0 L 10.65625 -79.609375 L 32.703125 -79.609375 L 32.703125 -70.296875 C 35.765625 -73.648438 39.5625 -76.238281 44.09375 -78.0625 C 48.632812 -79.882812 53.617188 -80.796875 59.046875 -80.796875 Z M 59.046875 -80.796875 "/></g></g></g><g fill="#ffffff" fill-opacity="1"><g transform="translate(788.790851, 141.489991)"><g><path d="M 88.640625 -39.515625 C 88.640625 -39.210938 88.492188 -37.140625 88.203125 -33.296875 L 27.96875 -33.296875 C 29.050781 -28.359375 31.613281 -24.457031 35.65625 -21.59375 C 39.707031 -18.738281 44.742188 -17.3125 50.765625 -17.3125 C 54.898438 -17.3125 58.570312 -17.925781 61.78125 -19.15625 C 64.988281 -20.394531 67.972656 -22.347656 70.734375 -25.015625 L 83.015625 -11.6875 C 75.515625 -3.101562 64.566406 1.1875 50.171875 1.1875 C 41.191406 1.1875 33.25 -0.5625 26.34375 -4.0625 C 19.4375 -7.570312 14.109375 -12.429688 10.359375 -18.640625 C 6.609375 -24.859375 4.734375 -31.914062 4.734375 -39.8125 C 4.734375 -47.601562 6.582031 -54.628906 10.28125 -60.890625 C 13.976562 -67.160156 19.054688 -72.046875 25.515625 -75.546875 C 31.984375 -79.046875 39.210938 -80.796875 47.203125 -80.796875 C 54.992188 -80.796875 62.046875 -79.117188 68.359375 -75.765625 C 74.679688 -72.410156 79.640625 -67.597656 83.234375 -61.328125 C 86.835938 -55.066406 88.640625 -47.796875 88.640625 -39.515625 Z M 47.359375 -63.34375 C 42.128906 -63.34375 37.738281 -61.859375 34.1875 -58.890625 C 30.632812 -55.929688 28.460938 -51.890625 27.671875 -46.765625 L 66.890625 -46.765625 C 66.097656 -51.796875 63.925781 -55.816406 60.375 -58.828125 C 56.820312 -61.835938 52.484375 -63.34375 47.359375 -63.34375 Z M 47.359375 -63.34375 "/></g></g></g><g fill="#ffffff" fill-opacity="1"><g transform="translate(882.168909, 141.489991)"><g><path d="M 37.4375 1.1875 C 30.832031 1.1875 24.367188 0.371094 18.046875 -1.25 C 11.734375 -2.882812 6.703125 -4.9375 2.953125 -7.40625 L 10.65625 -23.96875 C 14.207031 -21.695312 18.5 -19.847656 23.53125 -18.421875 C 28.5625 -16.992188 33.492188 -16.28125 38.328125 -16.28125 C 48.097656 -16.28125 52.984375 -18.695312 52.984375 -23.53125 C 52.984375 -25.800781 51.648438 -27.425781 48.984375 -28.40625 C 46.316406 -29.394531 42.222656 -30.234375 36.703125 -30.921875 C 30.191406 -31.910156 24.8125 -33.046875 20.5625 -34.328125 C 16.320312 -35.609375 12.648438 -37.875 9.546875 -41.125 C 6.441406 -44.382812 4.890625 -49.023438 4.890625 -55.046875 C 4.890625 -60.078125 6.34375 -64.539062 9.25 -68.4375 C 12.15625 -72.332031 16.394531 -75.363281 21.96875 -77.53125 C 27.550781 -79.707031 34.140625 -80.796875 41.734375 -80.796875 C 47.359375 -80.796875 52.957031 -80.175781 58.53125 -78.9375 C 64.101562 -77.707031 68.710938 -76.007812 72.359375 -73.84375 L 64.671875 -57.421875 C 57.660156 -61.367188 50.015625 -63.34375 41.734375 -63.34375 C 36.796875 -63.34375 33.09375 -62.648438 30.625 -61.265625 C 28.164062 -59.878906 26.9375 -58.101562 26.9375 -55.9375 C 26.9375 -53.46875 28.265625 -51.738281 30.921875 -50.75 C 33.585938 -49.769531 37.832031 -48.835938 43.65625 -47.953125 C 50.164062 -46.859375 55.492188 -45.695312 59.640625 -44.46875 C 63.785156 -43.238281 67.382812 -40.992188 70.4375 -37.734375 C 73.5 -34.484375 75.03125 -29.945312 75.03125 -24.125 C 75.03125 -19.1875 73.550781 -14.789062 70.59375 -10.9375 C 67.632812 -7.09375 63.316406 -4.109375 57.640625 -1.984375 C 51.960938 0.128906 45.226562 1.1875 37.4375 1.1875 Z M 37.4375 1.1875 "/></g></g></g><g fill="#ffffff" fill-opacity="1"><g transform="translate(960.748568, 141.489991)"><g><path d="M 37.4375 1.1875 C 30.832031 1.1875 24.367188 0.371094 18.046875 -1.25 C 11.734375 -2.882812 6.703125 -4.9375 2.953125 -7.40625 L 10.65625 -23.96875 C 14.207031 -21.695312 18.5 -19.847656 23.53125 -18.421875 C 28.5625 -16.992188 33.492188 -16.28125 38.328125 -16.28125 C 48.097656 -16.28125 52.984375 -18.695312 52.984375 -23.53125 C 52.984375 -25.800781 51.648438 -27.425781 48.984375 -28.40625 C 46.316406 -29.394531 42.222656 -30.234375 36.703125 -30.921875 C 30.191406 -31.910156 24.8125 -33.046875 20.5625 -34.328125 C 16.320312 -35.609375 12.648438 -37.875 9.546875 -41.125 C 6.441406 -44.382812 4.890625 -49.023438 4.890625 -55.046875 C 4.890625 -60.078125 6.34375 -64.539062 9.25 -68.4375 C 12.15625 -72.332031 16.394531 -75.363281 21.96875 -77.53125 C 27.550781 -79.707031 34.140625 -80.796875 41.734375 -80.796875 C 47.359375 -80.796875 52.957031 -80.175781 58.53125 -78.9375 C 64.101562 -77.707031 68.710938 -76.007812 72.359375 -73.84375 L 64.671875 -57.421875 C 57.660156 -61.367188 50.015625 -63.34375 41.734375 -63.34375 C 36.796875 -63.34375 33.09375 -62.648438 30.625 -61.265625 C 28.164062 -59.878906 26.9375 -58.101562 26.9375 -55.9375 C 26.9375 -53.46875 28.265625 -51.738281 30.921875 -50.75 C 33.585938 -49.769531 37.832031 -48.835938 43.65625 -47.953125 C 50.164062 -46.859375 55.492188 -45.695312 59.640625 -44.46875 C 63.785156 -43.238281 67.382812 -40.992188 70.4375 -37.734375 C 73.5 -34.484375 75.03125 -29.945312 75.03125 -24.125 C 75.03125 -19.1875 73.550781 -14.789062 70.59375 -10.9375 C 67.632812 -7.09375 63.316406 -4.109375 57.640625 -1.984375 C 51.960938 0.128906 45.226562 1.1875 37.4375 1.1875 Z M 37.4375 1.1875 "/></g></g></g></g></g><g transform="matrix(1, 0, 0, 1, 410, 1048)"><g clip-path="url(#d3f8815d2d)"><g fill="#ffffff" fill-opacity="1"><g transform="translate(1.209323, 42.16766)"><g><path d="M 26.78125 -2.8125 L 26.78125 0 L 5.015625 0 L 5.015625 -30.796875 L 26.125 -30.796875 L 26.125 -27.96875 L 8.265625 -27.96875 L 8.265625 -17.015625 L 24.1875 -17.015625 L 24.1875 -14.25 L 8.265625 -14.25 L 8.265625 -2.8125 Z M 26.78125 -2.8125 "/></g></g></g><g fill="#ffffff" fill-opacity="1"><g transform="translate(30.624527, 42.16766)"><g><path d="M 26.03125 0 L 19 -9.890625 C 18.207031 -9.804688 17.382812 -9.765625 16.53125 -9.765625 L 8.265625 -9.765625 L 8.265625 0 L 5.015625 0 L 5.015625 -30.796875 L 16.53125 -30.796875 C 20.46875 -30.796875 23.550781 -29.851562 25.78125 -27.96875 C 28.007812 -26.09375 29.125 -23.515625 29.125 -20.234375 C 29.125 -17.828125 28.515625 -15.796875 27.296875 -14.140625 C 26.078125 -12.484375 24.335938 -11.289062 22.078125 -10.5625 L 29.59375 0 Z M 16.453125 -12.53125 C 19.503906 -12.53125 21.832031 -13.203125 23.4375 -14.546875 C 25.050781 -15.898438 25.859375 -17.796875 25.859375 -20.234375 C 25.859375 -22.722656 25.050781 -24.632812 23.4375 -25.96875 C 21.832031 -27.300781 19.503906 -27.96875 16.453125 -27.96875 L 8.265625 -27.96875 L 8.265625 -12.53125 Z M 16.453125 -12.53125 "/></g></g></g><g fill="#ffffff" fill-opacity="1"><g transform="translate(62.41406, 42.16766)"><g><path d="M 16.53125 -30.796875 C 20.46875 -30.796875 23.550781 -29.851562 25.78125 -27.96875 C 28.007812 -26.09375 29.125 -23.515625 29.125 -20.234375 C 29.125 -16.953125 28.007812 -14.378906 25.78125 -12.515625 C 23.550781 -10.648438 20.46875 -9.71875 16.53125 -9.71875 L 8.265625 -9.71875 L 8.265625 0 L 5.015625 0 L 5.015625 -30.796875 Z M 16.453125 -12.578125 C 19.503906 -12.578125 21.832031 -13.242188 23.4375 -14.578125 C 25.050781 -15.910156 25.859375 -17.796875 25.859375 -20.234375 C 25.859375 -22.722656 25.050781 -24.632812 23.4375 -25.96875 C 21.832031 -27.300781 19.503906 -27.96875 16.453125 -27.96875 L 8.265625 -27.96875 L 8.265625 -12.578125 Z M 16.453125 -12.578125 "/></g></g></g><g fill="#ffffff" fill-opacity="1"><g transform="translate(92.708308, 42.16766)"><g><path d="M 4.703125 -4.578125 C 5.378906 -4.578125 5.9375 -4.347656 6.375 -3.890625 C 6.8125 -3.429688 7.03125 -2.867188 7.03125 -2.203125 C 7.03125 -1.847656 6.976562 -1.460938 6.875 -1.046875 C 6.78125 -0.640625 6.628906 -0.167969 6.421875 0.359375 L 4.578125 6.421875 L 2.46875 6.421875 L 3.953125 0.046875 C 3.484375 -0.0976562 3.101562 -0.367188 2.8125 -0.765625 C 2.519531 -1.160156 2.375 -1.640625 2.375 -2.203125 C 2.375 -2.867188 2.59375 -3.429688 3.03125 -3.890625 C 3.46875 -4.347656 4.023438 -4.578125 4.703125 -4.578125 Z M 4.703125 -4.578125 "/></g></g></g><g fill="#ffffff" fill-opacity="1"><g transform="translate(102.029703, 42.16766)"><g/></g></g><g fill="#ffffff" fill-opacity="1"><g transform="translate(113.549554, 42.16766)"><g><path d="M 8.265625 -27.96875 L 8.265625 -15.875 L 24.1875 -15.875 L 24.1875 -13.0625 L 8.265625 -13.0625 L 8.265625 0 L 5.015625 0 L 5.015625 -30.796875 L 26.125 -30.796875 L 26.125 -27.96875 Z M 8.265625 -27.96875 "/></g></g></g><g fill="#ffffff" fill-opacity="1"><g transform="translate(140.942038, 42.16766)"><g><path d="M 4.359375 -23.140625 L 7.484375 -23.140625 L 7.484375 0 L 4.359375 0 Z M 5.9375 -28.1875 C 5.300781 -28.1875 4.757812 -28.40625 4.3125 -28.84375 C 3.875 -29.289062 3.65625 -29.820312 3.65625 -30.4375 C 3.65625 -31.019531 3.875 -31.53125 4.3125 -31.96875 C 4.757812 -32.414062 5.300781 -32.640625 5.9375 -32.640625 C 6.582031 -32.640625 7.125 -32.425781 7.5625 -32 C 8.007812 -31.570312 8.234375 -31.066406 8.234375 -30.484375 C 8.234375 -29.835938 8.007812 -29.289062 7.5625 -28.84375 C 7.125 -28.40625 6.582031 -28.1875 5.9375 -28.1875 Z M 5.9375 -28.1875 "/></g></g></g><g fill="#ffffff" fill-opacity="1"><g transform="translate(152.769689, 42.16766)"><g><path d="M 16.140625 -23.3125 C 19.046875 -23.3125 21.351562 -22.46875 23.0625 -20.78125 C 24.78125 -19.09375 25.640625 -16.640625 25.640625 -13.421875 L 25.640625 0 L 22.515625 0 L 22.515625 -13.109375 C 22.515625 -15.515625 21.910156 -17.347656 20.703125 -18.609375 C 19.503906 -19.867188 17.796875 -20.5 15.578125 -20.5 C 13.078125 -20.5 11.101562 -19.753906 9.65625 -18.265625 C 8.207031 -16.785156 7.484375 -14.742188 7.484375 -12.140625 L 7.484375 0 L 4.359375 0 L 4.359375 -23.140625 L 7.34375 -23.140625 L 7.34375 -18.875 C 8.195312 -20.28125 9.378906 -21.367188 10.890625 -22.140625 C 12.398438 -22.921875 14.148438 -23.3125 16.140625 -23.3125 Z M 16.140625 -23.3125 "/></g></g></g><g fill="#ffffff" fill-opacity="1"><g transform="translate(182.536639, 42.16766)"><g><path d="M 12.453125 -23.3125 C 15.472656 -23.3125 17.785156 -22.554688 19.390625 -21.046875 C 21.003906 -19.535156 21.8125 -17.300781 21.8125 -14.34375 L 21.8125 0 L 18.828125 0 L 18.828125 -3.609375 C 18.117188 -2.398438 17.082031 -1.457031 15.71875 -0.78125 C 14.351562 -0.113281 12.734375 0.21875 10.859375 0.21875 C 8.285156 0.21875 6.234375 -0.394531 4.703125 -1.625 C 3.179688 -2.851562 2.421875 -4.484375 2.421875 -6.515625 C 2.421875 -8.472656 3.128906 -10.050781 4.546875 -11.25 C 5.972656 -12.457031 8.238281 -13.0625 11.34375 -13.0625 L 18.6875 -13.0625 L 18.6875 -14.46875 C 18.6875 -16.46875 18.128906 -17.984375 17.015625 -19.015625 C 15.898438 -20.054688 14.273438 -20.578125 12.140625 -20.578125 C 10.671875 -20.578125 9.257812 -20.335938 7.90625 -19.859375 C 6.5625 -19.378906 5.40625 -18.710938 4.4375 -17.859375 L 3.03125 -20.1875 C 4.207031 -21.1875 5.613281 -21.957031 7.25 -22.5 C 8.894531 -23.039062 10.628906 -23.3125 12.453125 -23.3125 Z M 11.34375 -2.25 C 13.101562 -2.25 14.613281 -2.648438 15.875 -3.453125 C 17.132812 -4.253906 18.070312 -5.421875 18.6875 -6.953125 L 18.6875 -10.734375 L 11.4375 -10.734375 C 7.476562 -10.734375 5.5 -9.351562 5.5 -6.59375 C 5.5 -5.25 6.007812 -4.1875 7.03125 -3.40625 C 8.0625 -2.632812 9.5 -2.25 11.34375 -2.25 Z M 11.34375 -2.25 "/></g></g></g><g fill="#ffffff" fill-opacity="1"><g transform="translate(208.478287, 42.16766)"><g><path d="M 16.140625 -23.3125 C 19.046875 -23.3125 21.351562 -22.46875 23.0625 -20.78125 C 24.78125 -19.09375 25.640625 -16.640625 25.640625 -13.421875 L 25.640625 0 L 22.515625 0 L 22.515625 -13.109375 C 22.515625 -15.515625 21.910156 -17.347656 20.703125 -18.609375 C 19.503906 -19.867188 17.796875 -20.5 15.578125 -20.5 C 13.078125 -20.5 11.101562 -19.753906 9.65625 -18.265625 C 8.207031 -16.785156 7.484375 -14.742188 7.484375 -12.140625 L 7.484375 0 L 4.359375 0 L 4.359375 -23.140625 L 7.34375 -23.140625 L 7.34375 -18.875 C 8.195312 -20.28125 9.378906 -21.367188 10.890625 -22.140625 C 12.398438 -22.921875 14.148438 -23.3125 16.140625 -23.3125 Z M 16.140625 -23.3125 "/></g></g></g><g fill="#ffffff" fill-opacity="1"><g transform="translate(238.33322, 42.16766)"><g><path d="M 13.9375 0.21875 C 11.65625 0.21875 9.613281 -0.273438 7.8125 -1.265625 C 6.007812 -2.265625 4.59375 -3.664062 3.5625 -5.46875 C 2.53125 -7.28125 2.015625 -9.3125 2.015625 -11.5625 C 2.015625 -13.820312 2.53125 -15.847656 3.5625 -17.640625 C 4.59375 -19.429688 6.007812 -20.820312 7.8125 -21.8125 C 9.613281 -22.8125 11.65625 -23.3125 13.9375 -23.3125 C 15.9375 -23.3125 17.71875 -22.921875 19.28125 -22.140625 C 20.851562 -21.367188 22.09375 -20.234375 23 -18.734375 L 20.671875 -17.15625 C 19.910156 -18.300781 18.941406 -19.15625 17.765625 -19.71875 C 16.597656 -20.289062 15.320312 -20.578125 13.9375 -20.578125 C 12.269531 -20.578125 10.769531 -20.203125 9.4375 -19.453125 C 8.101562 -18.710938 7.0625 -17.648438 6.3125 -16.265625 C 5.5625 -14.890625 5.1875 -13.320312 5.1875 -11.5625 C 5.1875 -9.78125 5.5625 -8.207031 6.3125 -6.84375 C 7.0625 -5.476562 8.101562 -4.421875 9.4375 -3.671875 C 10.769531 -2.921875 12.269531 -2.546875 13.9375 -2.546875 C 15.320312 -2.546875 16.597656 -2.820312 17.765625 -3.375 C 18.941406 -3.9375 19.910156 -4.789062 20.671875 -5.9375 L 23 -4.359375 C 22.09375 -2.859375 20.847656 -1.71875 19.265625 -0.9375 C 17.679688 -0.164062 15.90625 0.21875 13.9375 0.21875 Z M 13.9375 0.21875 "/></g></g></g><g fill="#ffffff" fill-opacity="1"><g transform="translate(262.691875, 42.16766)"><g><path d="M 24.5 -10.59375 L 5.140625 -10.59375 C 5.316406 -8.195312 6.238281 -6.253906 7.90625 -4.765625 C 9.582031 -3.285156 11.695312 -2.546875 14.25 -2.546875 C 15.6875 -2.546875 17.003906 -2.800781 18.203125 -3.3125 C 19.410156 -3.832031 20.453125 -4.59375 21.328125 -5.59375 L 23.09375 -3.5625 C 22.0625 -2.332031 20.773438 -1.394531 19.234375 -0.75 C 17.703125 -0.101562 16.007812 0.21875 14.15625 0.21875 C 11.78125 0.21875 9.675781 -0.285156 7.84375 -1.296875 C 6.019531 -2.304688 4.59375 -3.707031 3.5625 -5.5 C 2.53125 -7.289062 2.015625 -9.3125 2.015625 -11.5625 C 2.015625 -13.820312 2.503906 -15.847656 3.484375 -17.640625 C 4.472656 -19.429688 5.820312 -20.820312 7.53125 -21.8125 C 9.25 -22.8125 11.179688 -23.3125 13.328125 -23.3125 C 15.460938 -23.3125 17.378906 -22.8125 19.078125 -21.8125 C 20.785156 -20.820312 22.125 -19.4375 23.09375 -17.65625 C 24.0625 -15.882812 24.546875 -13.851562 24.546875 -11.5625 Z M 13.328125 -20.625 C 11.097656 -20.625 9.226562 -19.910156 7.71875 -18.484375 C 6.207031 -17.066406 5.347656 -15.21875 5.140625 -12.9375 L 21.546875 -12.9375 C 21.347656 -15.21875 20.492188 -17.066406 18.984375 -18.484375 C 17.472656 -19.910156 15.585938 -20.625 13.328125 -20.625 Z M 13.328125 -20.625 "/></g></g></g><g fill="#ffffff" fill-opacity="1"><g transform="translate(289.249078, 42.16766)"><g><path d="M 4.703125 -4.578125 C 5.378906 -4.578125 5.9375 -4.347656 6.375 -3.890625 C 6.8125 -3.429688 7.03125 -2.867188 7.03125 -2.203125 C 7.03125 -1.847656 6.976562 -1.460938 6.875 -1.046875 C 6.78125 -0.640625 6.628906 -0.167969 6.421875 0.359375 L 4.578125 6.421875 L 2.46875 6.421875 L 3.953125 0.046875 C 3.484375 -0.0976562 3.101562 -0.367188 2.8125 -0.765625 C 2.519531 -1.160156 2.375 -1.640625 2.375 -2.203125 C 2.375 -2.867188 2.59375 -3.429688 3.03125 -3.890625 C 3.46875 -4.347656 4.023438 -4.578125 4.703125 -4.578125 Z M 4.703125 -4.578125 "/></g></g></g><g fill="#ffffff" fill-opacity="1"><g transform="translate(298.570473, 42.16766)"><g/></g></g><g fill="#ffffff" fill-opacity="1"><g transform="translate(310.090324, 42.16766)"><g><path d="M 5.015625 -30.796875 L 8.265625 -30.796875 L 8.265625 0 L 5.015625 0 Z M 5.015625 -30.796875 "/></g></g></g><g fill="#ffffff" fill-opacity="1"><g transform="translate(323.368948, 42.16766)"><g><path d="M 16.140625 -23.3125 C 19.046875 -23.3125 21.351562 -22.46875 23.0625 -20.78125 C 24.78125 -19.09375 25.640625 -16.640625 25.640625 -13.421875 L 25.640625 0 L 22.515625 0 L 22.515625 -13.109375 C 22.515625 -15.515625 21.910156 -17.347656 20.703125 -18.609375 C 19.503906 -19.867188 17.796875 -20.5 15.578125 -20.5 C 13.078125 -20.5 11.101562 -19.753906 9.65625 -18.265625 C 8.207031 -16.785156 7.484375 -14.742188 7.484375 -12.140625 L 7.484375 0 L 4.359375 0 L 4.359375 -23.140625 L 7.34375 -23.140625 L 7.34375 -18.875 C 8.195312 -20.28125 9.378906 -21.367188 10.890625 -22.140625 C 12.398438 -22.921875 14.148438 -23.3125 16.140625 -23.3125 Z M 16.140625 -23.3125 "/></g></g></g><g fill="#ffffff" fill-opacity="1"><g transform="translate(352.696079, 42.16766)"><g><path d="M 23.796875 -23.140625 L 13.5 0 L 10.296875 0 L 0.046875 -23.140625 L 3.296875 -23.140625 L 11.96875 -3.4375 L 20.71875 -23.140625 Z M 23.796875 -23.140625 "/></g></g></g><g fill="#ffffff" fill-opacity="1"><g transform="translate(375.867525, 42.16766)"><g><path d="M 24.5 -10.59375 L 5.140625 -10.59375 C 5.316406 -8.195312 6.238281 -6.253906 7.90625 -4.765625 C 9.582031 -3.285156 11.695312 -2.546875 14.25 -2.546875 C 15.6875 -2.546875 17.003906 -2.800781 18.203125 -3.3125 C 19.410156 -3.832031 20.453125 -4.59375 21.328125 -5.59375 L 23.09375 -3.5625 C 22.0625 -2.332031 20.773438 -1.394531 19.234375 -0.75 C 17.703125 -0.101562 16.007812 0.21875 14.15625 0.21875 C 11.78125 0.21875 9.675781 -0.285156 7.84375 -1.296875 C 6.019531 -2.304688 4.59375 -3.707031 3.5625 -5.5 C 2.53125 -7.289062 2.015625 -9.3125 2.015625 -11.5625 C 2.015625 -13.820312 2.503906 -15.847656 3.484375 -17.640625 C 4.472656 -19.429688 5.820312 -20.820312 7.53125 -21.8125 C 9.25 -22.8125 11.179688 -23.3125 13.328125 -23.3125 C 15.460938 -23.3125 17.378906 -22.8125 19.078125 -21.8125 C 20.785156 -20.820312 22.125 -19.4375 23.09375 -17.65625 C 24.0625 -15.882812 24.546875 -13.851562 24.546875 -11.5625 Z M 13.328125 -20.625 C 11.097656 -20.625 9.226562 -19.910156 7.71875 -18.484375 C 6.207031 -17.066406 5.347656 -15.21875 5.140625 -12.9375 L 21.546875 -12.9375 C 21.347656 -15.21875 20.492188 -17.066406 18.984375 -18.484375 C 17.472656 -19.910156 15.585938 -20.625 13.328125 -20.625 Z M 13.328125 -20.625 "/></g></g></g><g fill="#ffffff" fill-opacity="1"><g transform="translate(402.424728, 42.16766)"><g><path d="M 16.140625 -23.3125 C 19.046875 -23.3125 21.351562 -22.46875 23.0625 -20.78125 C 24.78125 -19.09375 25.640625 -16.640625 25.640625 -13.421875 L 25.640625 0 L 22.515625 0 L 22.515625 -13.109375 C 22.515625 -15.515625 21.910156 -17.347656 20.703125 -18.609375 C 19.503906 -19.867188 17.796875 -20.5 15.578125 -20.5 C 13.078125 -20.5 11.101562 -19.753906 9.65625 -18.265625 C 8.207031 -16.785156 7.484375 -14.742188 7.484375 -12.140625 L 7.484375 0 L 4.359375 0 L 4.359375 -23.140625 L 7.34375 -23.140625 L 7.34375 -18.875 C 8.195312 -20.28125 9.378906 -21.367188 10.890625 -22.140625 C 12.398438 -22.921875 14.148438 -23.3125 16.140625 -23.3125 Z M 16.140625 -23.3125 "/></g></g></g><g fill="#ffffff" fill-opacity="1"><g transform="translate(432.191678, 42.16766)"><g><path d="M 16.53125 -1.40625 C 15.945312 -0.875 15.222656 -0.46875 14.359375 -0.1875 C 13.492188 0.0820312 12.59375 0.21875 11.65625 0.21875 C 9.488281 0.21875 7.816406 -0.363281 6.640625 -1.53125 C 5.460938 -2.707031 4.875 -4.367188 4.875 -6.515625 L 4.875 -20.5 L 0.75 -20.5 L 0.75 -23.140625 L 4.875 -23.140625 L 4.875 -28.1875 L 8 -28.1875 L 8 -23.140625 L 15.046875 -23.140625 L 15.046875 -20.5 L 8 -20.5 L 8 -6.6875 C 8 -5.3125 8.34375 -4.265625 9.03125 -3.546875 C 9.726562 -2.828125 10.71875 -2.46875 12 -2.46875 C 12.644531 -2.46875 13.269531 -2.566406 13.875 -2.765625 C 14.476562 -2.972656 15 -3.269531 15.4375 -3.65625 Z M 16.53125 -1.40625 "/></g></g></g><g fill="#ffffff" fill-opacity="1"><g transform="translate(449.207439, 42.16766)"><g><path d="M 13.8125 0.21875 C 11.582031 0.21875 9.570312 -0.285156 7.78125 -1.296875 C 6 -2.304688 4.59375 -3.707031 3.5625 -5.5 C 2.53125 -7.289062 2.015625 -9.3125 2.015625 -11.5625 C 2.015625 -13.820312 2.53125 -15.847656 3.5625 -17.640625 C 4.59375 -19.429688 6 -20.820312 7.78125 -21.8125 C 9.570312 -22.8125 11.582031 -23.3125 13.8125 -23.3125 C 16.039062 -23.3125 18.046875 -22.8125 19.828125 -21.8125 C 21.617188 -20.820312 23.019531 -19.429688 24.03125 -17.640625 C 25.050781 -15.847656 25.5625 -13.820312 25.5625 -11.5625 C 25.5625 -9.3125 25.050781 -7.289062 24.03125 -5.5 C 23.019531 -3.707031 21.617188 -2.304688 19.828125 -1.296875 C 18.046875 -0.285156 16.039062 0.21875 13.8125 0.21875 Z M 13.8125 -2.546875 C 15.457031 -2.546875 16.929688 -2.921875 18.234375 -3.671875 C 19.535156 -4.421875 20.550781 -5.484375 21.28125 -6.859375 C 22.019531 -8.234375 22.390625 -9.800781 22.390625 -11.5625 C 22.390625 -13.320312 22.019531 -14.890625 21.28125 -16.265625 C 20.550781 -17.648438 19.535156 -18.710938 18.234375 -19.453125 C 16.929688 -20.203125 15.457031 -20.578125 13.8125 -20.578125 C 12.164062 -20.578125 10.691406 -20.203125 9.390625 -19.453125 C 8.085938 -18.710938 7.0625 -17.648438 6.3125 -16.265625 C 5.5625 -14.890625 5.1875 -13.320312 5.1875 -11.5625 C 5.1875 -9.800781 5.5625 -8.234375 6.3125 -6.859375 C 7.0625 -5.484375 8.085938 -4.421875 9.390625 -3.671875 C 10.691406 -2.921875 12.164062 -2.546875 13.8125 -2.546875 Z M 13.8125 -2.546875 "/></g></g></g><g fill="#ffffff" fill-opacity="1"><g transform="translate(476.775933, 42.16766)"><g><path d="M 7.34375 -18.609375 C 8.070312 -20.160156 9.160156 -21.332031 10.609375 -22.125 C 12.066406 -22.914062 13.867188 -23.3125 16.015625 -23.3125 L 16.015625 -20.28125 L 15.265625 -20.328125 C 12.828125 -20.328125 10.921875 -19.578125 9.546875 -18.078125 C 8.171875 -16.578125 7.484375 -14.476562 7.484375 -11.78125 L 7.484375 0 L 4.359375 0 L 4.359375 -23.140625 L 7.34375 -23.140625 Z M 7.34375 -18.609375 "/></g></g></g><g fill="#ffffff" fill-opacity="1"><g transform="translate(495.067161, 42.16766)"><g><path d="M 23.796875 -23.140625 L 12.234375 2.765625 C 11.285156 4.941406 10.195312 6.484375 8.96875 7.390625 C 7.738281 8.296875 6.257812 8.75 4.53125 8.75 C 3.414062 8.75 2.375 8.570312 1.40625 8.21875 C 0.4375 7.875 -0.394531 7.347656 -1.09375 6.640625 L 0.359375 4.3125 C 1.523438 5.476562 2.929688 6.0625 4.578125 6.0625 C 5.628906 6.0625 6.53125 5.769531 7.28125 5.1875 C 8.03125 4.601562 8.726562 3.609375 9.375 2.203125 L 10.375 -0.046875 L 0.046875 -23.140625 L 3.296875 -23.140625 L 12 -3.46875 L 20.71875 -23.140625 Z M 23.796875 -23.140625 "/></g></g></g><g fill="#ffffff" fill-opacity="1"><g transform="translate(517.402959, 42.16766)"><g><path d="M 4.703125 -4.578125 C 5.378906 -4.578125 5.9375 -4.347656 6.375 -3.890625 C 6.8125 -3.429688 7.03125 -2.867188 7.03125 -2.203125 C 7.03125 -1.847656 6.976562 -1.460938 6.875 -1.046875 C 6.78125 -0.640625 6.628906 -0.167969 6.421875 0.359375 L 4.578125 6.421875 L 2.46875 6.421875 L 3.953125 0.046875 C 3.484375 -0.0976562 3.101562 -0.367188 2.8125 -0.765625 C 2.519531 -1.160156 2.375 -1.640625 2.375 -2.203125 C 2.375 -2.867188 2.59375 -3.429688 3.03125 -3.890625 C 3.46875 -4.347656 4.023438 -4.578125 4.703125 -4.578125 Z M 4.703125 -4.578125 "/></g></g></g><g fill="#ffffff" fill-opacity="1"><g transform="translate(526.724354, 42.16766)"><g/></g></g><g fill="#ffffff" fill-opacity="1"><g transform="translate(538.244205, 42.16766)"><g><path d="M 24.40625 -15.875 C 26.4375 -15.4375 28 -14.5625 29.09375 -13.25 C 30.195312 -11.945312 30.75 -10.269531 30.75 -8.21875 C 30.75 -5.582031 29.769531 -3.550781 27.8125 -2.125 C 25.863281 -0.707031 22.984375 0 19.171875 0 L 5.015625 0 L 5.015625 -30.796875 L 18.296875 -30.796875 C 21.722656 -30.796875 24.382812 -30.101562 26.28125 -28.71875 C 28.175781 -27.34375 29.125 -25.394531 29.125 -22.875 C 29.125 -21.175781 28.703125 -19.734375 27.859375 -18.546875 C 27.023438 -17.359375 25.875 -16.46875 24.40625 -15.875 Z M 8.265625 -28.109375 L 8.265625 -16.9375 L 18.078125 -16.9375 C 20.566406 -16.9375 22.484375 -17.410156 23.828125 -18.359375 C 25.179688 -19.316406 25.859375 -20.703125 25.859375 -22.515625 C 25.859375 -24.335938 25.179688 -25.722656 23.828125 -26.671875 C 22.484375 -27.628906 20.566406 -28.109375 18.078125 -28.109375 Z M 19.140625 -2.6875 C 21.890625 -2.6875 23.96875 -3.15625 25.375 -4.09375 C 26.78125 -5.03125 27.484375 -6.492188 27.484375 -8.484375 C 27.484375 -12.328125 24.703125 -14.25 19.140625 -14.25 L 8.265625 -14.25 L 8.265625 -2.6875 Z M 19.140625 -2.6875 "/></g></g></g><g fill="#ffffff" fill-opacity="1"><g transform="translate(571.396774, 42.16766)"><g><path d="M 4.359375 -23.140625 L 7.484375 -23.140625 L 7.484375 0 L 4.359375 0 Z M 5.9375 -28.1875 C 5.300781 -28.1875 4.757812 -28.40625 4.3125 -28.84375 C 3.875 -29.289062 3.65625 -29.820312 3.65625 -30.4375 C 3.65625 -31.019531 3.875 -31.53125 4.3125 -31.96875 C 4.757812 -32.414062 5.300781 -32.640625 5.9375 -32.640625 C 6.582031 -32.640625 7.125 -32.425781 7.5625 -32 C 8.007812 -31.570312 8.234375 -31.066406 8.234375 -30.484375 C 8.234375 -29.835938 8.007812 -29.289062 7.5625 -28.84375 C 7.125 -28.40625 6.582031 -28.1875 5.9375 -28.1875 Z M 5.9375 -28.1875 "/></g></g></g><g fill="#ffffff" fill-opacity="1"><g transform="translate(583.224426, 42.16766)"><g><path d="M 4.359375 -32.640625 L 7.484375 -32.640625 L 7.484375 0 L 4.359375 0 Z M 4.359375 -32.640625 "/></g></g></g><g fill="#ffffff" fill-opacity="1"><g transform="translate(595.052077, 42.16766)"><g><path d="M 4.359375 -32.640625 L 7.484375 -32.640625 L 7.484375 0 L 4.359375 0 Z M 4.359375 -32.640625 "/></g></g></g><g fill="#ffffff" fill-opacity="1"><g transform="translate(606.879728, 42.16766)"><g><path d="M 4.359375 -23.140625 L 7.484375 -23.140625 L 7.484375 0 L 4.359375 0 Z M 5.9375 -28.1875 C 5.300781 -28.1875 4.757812 -28.40625 4.3125 -28.84375 C 3.875 -29.289062 3.65625 -29.820312 3.65625 -30.4375 C 3.65625 -31.019531 3.875 -31.53125 4.3125 -31.96875 C 4.757812 -32.414062 5.300781 -32.640625 5.9375 -32.640625 C 6.582031 -32.640625 7.125 -32.425781 7.5625 -32 C 8.007812 -31.570312 8.234375 -31.066406 8.234375 -30.484375 C 8.234375 -29.835938 8.007812 -29.289062 7.5625 -28.84375 C 7.125 -28.40625 6.582031 -28.1875 5.9375 -28.1875 Z M 5.9375 -28.1875 "/></g></g></g><g fill="#ffffff" fill-opacity="1"><g transform="translate(618.707379, 42.16766)"><g><path d="M 16.140625 -23.3125 C 19.046875 -23.3125 21.351562 -22.46875 23.0625 -20.78125 C 24.78125 -19.09375 25.640625 -16.640625 25.640625 -13.421875 L 25.640625 0 L 22.515625 0 L 22.515625 -13.109375 C 22.515625 -15.515625 21.910156 -17.347656 20.703125 -18.609375 C 19.503906 -19.867188 17.796875 -20.5 15.578125 -20.5 C 13.078125 -20.5 11.101562 -19.753906 9.65625 -18.265625 C 8.207031 -16.785156 7.484375 -14.742188 7.484375 -12.140625 L 7.484375 0 L 4.359375 0 L 4.359375 -23.140625 L 7.34375 -23.140625 L 7.34375 -18.875 C 8.195312 -20.28125 9.378906 -21.367188 10.890625 -22.140625 C 12.398438 -22.921875 14.148438 -23.3125 16.140625 -23.3125 Z M 16.140625 -23.3125 "/></g></g></g><g fill="#ffffff" fill-opacity="1"><g transform="translate(648.562311, 42.16766)"><g><path d="M 25.78125 -23.140625 L 25.78125 -2.8125 C 25.78125 1.113281 24.816406 4.019531 22.890625 5.90625 C 20.972656 7.800781 18.078125 8.75 14.203125 8.75 C 12.066406 8.75 10.035156 8.429688 8.109375 7.796875 C 6.191406 7.171875 4.632812 6.300781 3.4375 5.1875 L 5.015625 2.8125 C 6.128906 3.8125 7.484375 4.585938 9.078125 5.140625 C 10.679688 5.703125 12.363281 5.984375 14.125 5.984375 C 17.050781 5.984375 19.203125 5.300781 20.578125 3.9375 C 21.960938 2.570312 22.65625 0.449219 22.65625 -2.421875 L 22.65625 -5.359375 C 21.6875 -3.898438 20.414062 -2.785156 18.84375 -2.015625 C 17.28125 -1.253906 15.546875 -0.875 13.640625 -0.875 C 11.460938 -0.875 9.488281 -1.347656 7.71875 -2.296875 C 5.945312 -3.253906 4.550781 -4.59375 3.53125 -6.3125 C 2.519531 -8.03125 2.015625 -9.972656 2.015625 -12.140625 C 2.015625 -14.304688 2.519531 -16.238281 3.53125 -17.9375 C 4.550781 -19.644531 5.941406 -20.96875 7.703125 -21.90625 C 9.460938 -22.84375 11.441406 -23.3125 13.640625 -23.3125 C 15.597656 -23.3125 17.367188 -22.914062 18.953125 -22.125 C 20.535156 -21.332031 21.8125 -20.1875 22.78125 -18.6875 L 22.78125 -23.140625 Z M 13.9375 -3.65625 C 15.613281 -3.65625 17.125 -4.015625 18.46875 -4.734375 C 19.820312 -5.453125 20.867188 -6.453125 21.609375 -7.734375 C 22.359375 -9.023438 22.734375 -10.492188 22.734375 -12.140625 C 22.734375 -13.785156 22.359375 -15.242188 21.609375 -16.515625 C 20.867188 -17.785156 19.832031 -18.78125 18.5 -19.5 C 17.164062 -20.21875 15.644531 -20.578125 13.9375 -20.578125 C 12.269531 -20.578125 10.769531 -20.222656 9.4375 -19.515625 C 8.101562 -18.816406 7.0625 -17.820312 6.3125 -16.53125 C 5.5625 -15.25 5.1875 -13.785156 5.1875 -12.140625 C 5.1875 -10.492188 5.5625 -9.023438 6.3125 -7.734375 C 7.0625 -6.453125 8.101562 -5.453125 9.4375 -4.734375 C 10.769531 -4.015625 12.269531 -3.65625 13.9375 -3.65625 Z M 13.9375 -3.65625 "/></g></g></g></g></g><g clip-path="url(#dd4cf7e099)"><g clip-path="url(#70bd860221)"><path stroke-linecap="butt" transform="matrix(0.75, 0, 0, 0.75, 524.999988, 414.41224)" fill="none" stroke-linejoin="miter" d="M 300.000042 0.00242959 C 134.312527 0.00242959 0.0000158267 134.314941 0.0000158267 300.002455 C 0.0000158267 465.684761 134.312527 600.002481 300.000042 600.002481 C 465.687556 600.002481 600.000068 465.684761 600.000068 300.002455 C 600.000068 134.314941 465.687556 0.00242959 300.000042 0.00242959 Z M 300.000042 0.00242959 " stroke="#ffffff" stroke-width="92" stroke-opacity="1" stroke-miterlimit="4"/></g></g><g clip-path="url(#7a6f7b193b)"><g transform="matrix(1, 0, 0, 1, 729, 396)"><g clip-path="url(#f31d63b76b)"><g clip-path="url(#7f2aa11910)"><path fill="#000000" d="M 0.09375 0.769531 L 438.421875 0.769531 L 438.421875 312.46875 L 0.09375 312.46875 Z M 0.09375 0.769531 " fill-opacity="1" fill-rule="nonzero"/></g></g></g></g><g clip-path="url(#a8ab56df39)"><g clip-path="url(#4a3c8f039e)"><path stroke-linecap="butt" transform="matrix(0.75, 0, 0, 0.75, 907.419867, 639.412197)" fill="none" stroke-linejoin="miter" d="M 54.778723 0.00248743 C 24.528721 0.00248743 -0.00253125 24.528531 -0.00253125 54.783742 C -0.00253125 85.033745 24.528721 109.564997 54.778723 109.564997 C 85.033934 109.564997 109.559978 85.033745 109.559978 54.783742 C 109.559978 24.528531 85.033934 0.00248743 54.778723 0.00248743 Z M 54.778723 0.00248743 " stroke="#ffffff" stroke-width="70" stroke-opacity="1" stroke-miterlimit="4"/></g></g><path stroke-linecap="butt" transform="matrix(-0.00870611, 0.749949, -0.749949, -0.00870611, 756.582856, 442.44959)" fill="none" stroke-linejoin="miter" d="M -0.0010469 17.002259 L 203.069905 16.999148 " stroke="#ffffff" stroke-width="34" stroke-opacity="1" stroke-miterlimit="4"/><g clip-path="url(#c7b9233236)"><g clip-path="url(#6a8e8011a5)"><path stroke-linecap="butt" transform="matrix(0.75, 0, 0, 0.75, 729.095419, 498.866193)" fill="none" stroke-linejoin="miter" d="M 121.086335 0.00132596 C 54.211325 0.00132596 -0.00222473 54.209667 -0.00222473 121.084677 C -0.00222473 187.959688 54.211325 242.173237 121.086335 242.173237 C 187.961345 242.173237 242.169687 187.959688 242.169687 121.084677 C 242.169687 54.209667 187.961345 0.00132596 121.086335 0.00132596 Z M 121.086335 0.00132596 " stroke="#ffffff" stroke-width="70" stroke-opacity="1" stroke-miterlimit="4"/></g></g><g clip-path="url(#aaf6e81c81)"><g clip-path="url(#82c65e1d89)"><path stroke-linecap="butt" transform="matrix(0.75, 0, 0, 0.75, 707.757404, 393.391792)" fill="none" stroke-linejoin="miter" d="M 45.740131 -0.00155562 C 20.479713 -0.00155562 0.000544149 20.477613 0.000544149 45.74324 C 0.000544149 71.003659 20.479713 91.482827 45.740131 91.482827 C 71.005759 91.482827 91.484927 71.003659 91.484927 45.74324 C 91.484927 20.477613 71.005759 -0.00155562 45.740131 -0.00155562 Z M 45.740131 -0.00155562 " stroke="#ffffff" stroke-width="60" stroke-opacity="1" stroke-miterlimit="4"/></g></g></svg>